<svg width="80" height="80" viewBox="0 0 80 80" fill="none" xmlns="http://www.w3.org/2000/svg">
  <rect width="80" height="80" rx="16" fill="url(#gradient1)"/>
  <rect x="16" y="20" width="48" height="40" rx="4" fill="white" opacity="0.9"/>
  <rect x="20" y="28" width="8" height="8" rx="2" fill="url(#gradient2)"/>
  <rect x="32" y="28" width="24" height="4" rx="2" fill="url(#gradient2)" opacity="0.6"/>
  <rect x="20" y="40" width="8" height="8" rx="2" fill="url(#gradient2)"/>
  <rect x="32" y="40" width="24" height="4" rx="2" fill="url(#gradient2)" opacity="0.6"/>
  <rect x="20" y="52" width="8" height="8" rx="2" fill="url(#gradient2)"/>
  <rect x="32" y="52" width="24" height="4" rx="2" fill="url(#gradient2)" opacity="0.6"/>
  <circle cx="60" cy="16" r="8" fill="url(#gradient3)"/>
  <path d="M56 16L58 18L64 12" stroke="white" stroke-width="2" stroke-linecap="round" stroke-linejoin="round"/>
  <defs>
    <linearGradient id="gradient1" x1="0" y1="0" x2="80" y2="80" gradientUnits="userSpaceOnUse">
      <stop stop-color="#10B981"/>
      <stop offset="1" stop-color="#059669"/>
    </linearGradient>
    <linearGradient id="gradient2" x1="0" y1="0" x2="32" y2="8" gradientUnits="userSpaceOnUse">
      <stop stop-color="#6366F1"/>
      <stop offset="1" stop-color="#4F46E5"/>
    </linearGradient>
    <linearGradient id="gradient3" x1="52" y1="8" x2="68" y2="24" gradientUnits="userSpaceOnUse">
      <stop stop-color="#EF4444"/>
      <stop offset="1" stop-color="#DC2626"/>
    </linearGradient>
  </defs>
</svg>