<?xml version="1.0" encoding="UTF-8"?>
<svg version="1.1" xmlns="http://www.w3.org/2000/svg" width="1024" height="1024">
<path d="M0 0 C7.84358166 0.49309458 15.64204522 0.61548739 23.5 0.546875 C24.58949951 0.53891907 25.67899902 0.53096313 26.80151367 0.52276611 C31.30095077 0.48678313 35.80014301 0.4442478 40.29931641 0.38330078 C43.63707447 0.34073588 46.9745437 0.31748935 50.3125 0.296875 C51.31168457 0.27825409 52.31086914 0.25963318 53.34033203 0.240448 C63.86524366 0.20253373 73.90305862 2.31628324 81.875 9.5546875 C88.32538212 17.19067686 93.43672197 25.53618738 98.3125 34.2421875 C99.62577894 36.55238081 100.93958041 38.86227714 102.25390625 41.171875 C102.8792627 42.2762793 103.50461914 43.38068359 104.14892578 44.51855469 C106.31224403 48.32379172 108.52007558 52.10071711 110.75 55.8671875 C111.52882722 57.18609082 112.30746346 58.50510693 113.0859375 59.82421875 C113.51100586 60.54432129 113.93607422 61.26442383 114.37402344 62.00634766 C117.34024673 67.04236567 120.29233929 72.08668645 123.24685669 77.12957764 C124.36521152 79.03798404 125.48413943 80.94605319 126.60327148 82.85400391 C129.78275785 88.27498198 132.96040095 93.69693659 136.12109375 99.12890625 C136.58515625 99.92425781 137.04921875 100.71960938 137.52734375 101.5390625 C138.35667767 102.9607778 139.18367526 104.38385976 140.0078125 105.80859375 C141.4781971 108.32470314 142.80442455 110.48411205 144.875 112.5546875 C145.64695628 114.00865473 146.37698669 115.48509134 147.08203125 116.97265625 C161.24425344 146.0330516 161.24425344 146.0330516 185.5546875 165.69140625 C189.85639927 166.80985131 193.82913423 166.77134819 198.25 166.6796875 C199.08144531 166.67066406 199.91289062 166.66164063 200.76953125 166.65234375 C202.80481337 166.6289497 204.83994564 166.59308475 206.875 166.5546875 C205.35049175 171.95041894 202.83701319 176.39600563 200 181.1796875 C199.5167627 182.00073975 199.03352539 182.82179199 198.53564453 183.66772461 C197.50989706 185.40767306 196.48168002 187.14616767 195.45117188 188.88330078 C193.88155967 191.5435698 192.33736627 194.21731442 190.796875 196.89453125 C182.45549528 211.27714055 174.62042957 223.43168629 158.3125 229.4296875 C146.5332064 232.5089989 134.47747438 231.63622819 123.875 225.5546875 C112.90317218 218.90625944 106.42025591 208.69543594 100.375 197.6796875 C98.97764709 195.1755807 97.57237878 192.67593515 96.16796875 190.17578125 C95.81320969 189.54168839 95.45845062 188.90759552 95.09294128 188.25428772 C91.40699892 181.68021265 87.55489695 175.21094733 83.6875 168.7421875 C77.08932352 157.67159349 70.70141661 146.49630534 64.39550781 135.25732422 C56.29394514 120.8571478 48.00742475 106.56046042 39.7421875 92.25390625 C37.15823327 87.78067239 34.58048583 83.30394963 32.0078125 78.82421875 C25.74248282 67.92286396 19.45039474 57.04572417 12.90551758 46.30908203 C10.4991836 42.34432294 8.19695593 38.34637095 5.9921875 34.265625 C2.07948743 27.02551983 -2.14267618 19.9699651 -6.35351562 12.90039062 C-6.95486328 11.88009766 -7.55621094 10.85980469 -8.17578125 9.80859375 C-8.99042847 8.43682983 -8.99042847 8.43682983 -9.8215332 7.03735352 C-10.98050751 4.82989712 -11.66516806 2.98969855 -12.125 0.5546875 C-8.11759223 -0.86285432 -4.15176684 -0.30353572 0 0 Z " fill="#002942" transform="translate(71.125,376.4453125)"/>
<path d="M0 0 C0.33 0.66 0.66 1.32 1 2 C2.32 2 3.64 2 5 2 C3.7213304 5.35868324 2.27439326 8.45339122 0.48828125 11.5703125 C-0.01429199 12.45235352 -0.51686523 13.33439453 -1.03466797 14.24316406 C-1.58010254 15.19416992 -2.12553711 16.14517578 -2.6875 17.125 C-3.87197306 19.20522874 -5.05553024 21.28597918 -6.23828125 23.3671875 C-6.85654785 24.45483398 -7.47481445 25.54248047 -8.11181641 26.66308594 C-11.23061115 32.17481163 -14.30374988 37.71168012 -17.375 43.25 C-17.99898682 44.3745459 -18.62297363 45.4990918 -19.26586914 46.65771484 C-21.177972 50.10474132 -23.08914571 53.55228124 -25 57 C-36.80898744 78.30673575 -48.690174 99.5699415 -60.82397461 120.69384766 C-62.9983885 124.48027065 -65.15963797 128.26975262 -67.24609375 132.10546875 C-73.24278847 143.07391656 -79.08383624 151.86857987 -91.375 155.75 C-100.48842059 156.61794482 -108.41525716 156.33128143 -115.95361328 150.48486328 C-122.0573823 144.63335571 -125.84846115 137.77220624 -129.75 130.375 C-130.72157153 128.56269202 -131.69716164 126.75263045 -132.67510986 124.9437561 C-133.55569863 123.31049319 -134.42613499 121.67176819 -135.29589844 120.03271484 C-136.96759026 116.91035741 -136.96759026 116.91035741 -139.27441406 113.92431641 C-141 111 -141 111 -140.90527344 108.41943359 C-139.95557624 105.88127308 -138.87099197 103.63680296 -137.515625 101.2890625 C-136.99959717 100.38647705 -136.48356934 99.4838916 -135.9519043 98.55395508 C-135.39027588 97.5873999 -134.82864746 96.62084473 -134.25 95.625 C-133.05318409 93.53787585 -131.85657502 91.45063308 -130.66015625 89.36328125 C-130.0480127 88.30061035 -129.43586914 87.23793945 -128.80517578 86.14306641 C-126.07083959 81.38220028 -123.38115656 76.59645425 -120.6875 71.8125 C-115.09668131 61.91341183 -109.47871998 52.0296406 -103.82128906 42.16845703 C-103.48721039 41.58612305 -103.15313171 41.00378906 -102.80892944 40.40380859 C-102.47881866 39.82840332 -102.14870789 39.25299805 -101.80859375 38.66015625 C-99.44314879 34.53523091 -97.09972795 30.39976028 -94.78515625 26.24609375 C-94.29869629 25.38209961 -93.81223633 24.51810547 -93.31103516 23.62792969 C-92.43561671 22.07252926 -91.56848342 20.51241586 -90.71240234 18.94628906 C-86.65972123 11.79607047 -81.44434149 5.78289129 -73.66918945 2.70117188 C-62.55556439 -0.21827669 -49.73968637 0.83752391 -38.3125 0.875 C-37.13850647 0.87632935 -37.13850647 0.87632935 -35.9407959 0.87768555 C-23.93737359 0.89361902 -11.97747294 1.15736371 0 2 C0 1.34 0 0.68 0 0 Z " fill="#F78C42" transform="translate(368,376)"/>
<path d="M0 0 C5.67420636 -0.07460523 11.34812208 -0.12881608 17.02270508 -0.16479492 C18.94983906 -0.17980652 20.87693932 -0.20022216 22.80395508 -0.22631836 C25.58683639 -0.26303943 28.36926288 -0.27980292 31.15234375 -0.29296875 C32.00271713 -0.30845261 32.85309052 -0.32393646 33.72923279 -0.33988953 C42.01900146 -0.34217978 49.50656038 1.66094964 56 7 C61.83416494 13.40778787 64.54032845 19.8646906 64.31640625 28.59765625 C63.39176255 35.61809913 60.52706037 41.52571303 55 46 C49.59459459 50 49.59459459 50 46 50 C46.32685791 50.48766846 46.65371582 50.97533691 46.99047852 51.4777832 C53.09351463 60.58994772 59.18321841 69.7013421 65 79 C58.06206437 80.56381731 50.746676 81.73938618 44 79 C36.65958502 72.08956749 31.17529721 61.52589164 28 52 C24.37 52 20.74 52 17 52 C17.33 60.91 17.66 69.82 18 79 C15.215625 79.185625 12.43125 79.37125 9.5625 79.5625 C8.68408447 79.62381104 7.80566895 79.68512207 6.90063477 79.74829102 C4.93582221 79.87142264 2.96767675 79.93756604 1 80 C-0.7082941 78.2917059 -0.11971926 76.13995623 -0.12442017 73.86213684 C-0.12082489 73.12702377 -0.11722961 72.39191071 -0.11352539 71.63452148 C-0.11367142 70.86384338 -0.11381744 70.09316528 -0.1139679 69.2991333 C-0.1132686 66.73975861 -0.10547545 64.1804558 -0.09765625 61.62109375 C-0.09579213 59.85132385 -0.0943682 58.08155344 -0.09336853 56.31178284 C-0.08954288 51.64448634 -0.0797122 46.97722077 -0.06866455 42.30993652 C-0.05845144 37.55102965 -0.05387113 32.79211779 -0.04882812 28.03320312 C-0.03808997 18.68878847 -0.02101299 9.3443968 0 0 Z M17 15 C17 22.26 17 29.52 17 37 C20.72994296 37.10802731 24.45675221 37.18733597 28.1875 37.25 C29.24259766 37.28351562 30.29769531 37.31703125 31.38476562 37.3515625 C37.57838256 37.48016203 37.57838256 37.48016203 43.17578125 35.109375 C46.27774863 31.52251764 46.34054777 28.86821385 46.28125 24.2578125 C45.85665394 20.8492497 44.52704082 19.25384722 42 17 C37.15132625 14.28209108 32.07429915 14.77678164 26.6875 14.875 C23.490625 14.91625 20.29375 14.9575 17 15 Z " fill="#022941" transform="translate(526,484)"/>
<path d="M0 0 C0.34057617 2.98095703 0.34057617 2.98095703 0.29296875 6.7578125 C0.28172974 8.57756592 0.28172974 8.57756592 0.27026367 10.43408203 C0.24295166 11.98208496 0.21563965 13.53008789 0.1875 15.125 C0.125625 20.03375 0.06375 24.9425 0 30 C10.56 30 21.12 30 32 30 C31.9210029 20.96521078 31.9210029 20.96521078 31.81982422 11.93066406 C31.8148291 10.80370117 31.80983398 9.67673828 31.8046875 8.515625 C31.78897705 6.78747559 31.78897705 6.78747559 31.77294922 5.02441406 C32 2 32 2 34 -2 C38.95 -1.67 43.9 -1.34 49 -1 C49 -0.34 49 0.32 49 1 C49.99 1.495 49.99 1.495 51 2 C50.67 2.33 50.34 2.66 50 3 C49.8758378 5.26920225 49.82196252 7.5422645 49.79467773 9.81469727 C49.78477814 10.52685394 49.77487854 11.23901062 49.76467896 11.9727478 C49.73297788 14.33726628 49.70827276 16.70180489 49.68359375 19.06640625 C49.66303164 20.70166052 49.64203537 22.33690938 49.62062073 23.97215271 C49.56532328 28.28428786 49.51594799 32.59647158 49.46777344 36.90869141 C49.41761428 41.30570824 49.36189913 45.7026542 49.30664062 50.09960938 C49.19896527 58.73301307 49.09754129 67.3664759 49 76 C49.66 76.33 50.32 76.66 51 77 C50 78 50 78 46.18359375 78.09765625 C44.60153318 78.09098089 43.01948841 78.07901875 41.4375 78.0625 C40.63119141 78.05798828 39.82488281 78.05347656 38.99414062 78.04882812 C36.99606244 78.03700518 34.99802217 78.01906914 33 78 C32.8568968 74.06732611 32.71449972 70.13462735 32.57275391 66.2019043 C32.50069904 64.20685496 32.42808663 62.21182579 32.35546875 60.21679688 C32.31035156 58.96318359 32.26523437 57.70957031 32.21875 56.41796875 C32.17685547 55.26063232 32.13496094 54.1032959 32.09179688 52.91088867 C32.02968561 50.94133398 32 48.97053381 32 47 C21.11 46.67 10.22 46.34 -1 46 C-0.67 49.63 -0.34 53.26 0 57 C0.06748943 58.88839771 0.1096917 60.77840376 0.09765625 62.66796875 C0.09443359 63.57998047 0.09121094 64.49199219 0.08789062 65.43164062 C0.07951172 66.34107422 0.07113281 67.25050781 0.0625 68.1875 C0.05798828 69.13947266 0.05347656 70.09144531 0.04882812 71.07226562 C0.03722374 73.38153862 0.01929712 75.69077848 0 78 C-5.94 78 -11.88 78 -18 78 C-17.99476318 76.30697754 -17.98952637 74.61395508 -17.98413086 72.86962891 C-17.96783143 67.19798553 -17.95643738 61.52634557 -17.94818783 55.85468483 C-17.94302777 52.42491949 -17.93605969 48.9951801 -17.92456055 45.56542969 C-17.76966766 25.77189477 -17.76966766 25.77189477 -18.82322693 6.01651001 C-18.95556174 4.34854355 -18.9883715 2.67316747 -19 1 C-16.1793015 -1.8206985 -13.99435472 -1.47408037 -10.0625 -1.75 C-8.81597656 -1.84796875 -7.56945312 -1.9459375 -6.28515625 -2.046875 C-3 -2 -3 -2 0 0 Z " fill="#002942" transform="translate(923,485)"/>
<path d="M0 0 C0 0.99 0 1.98 0 3 C0.99 3.495 0.99 3.495 2 4 C1.34 4 0.68 4 0 4 C0.00999275 4.90629654 0.00999275 4.90629654 0.02018738 5.8309021 C0.08690982 12.15820966 0.13195285 18.48541614 0.16479492 24.81298828 C0.17981778 27.16980046 0.20024196 29.52658498 0.22631836 31.88330078 C0.26298821 35.28424942 0.27979196 38.68482621 0.29296875 42.0859375 C0.30845261 43.12801361 0.32393646 44.17008972 0.33988953 45.2437439 C0.34212126 55.09561384 -1.5014612 63.31331872 -7.9140625 70.95703125 C-15.17521826 78.06861265 -23.48185971 81.00110899 -33.4375 81.25 C-43.09545494 81.01021629 -49.27214176 78.82136214 -57 73 C-57.88751953 72.4121875 -57.88751953 72.4121875 -58.79296875 71.8125 C-63.53771769 68.43845631 -64.60405318 64.36284606 -66 59 C-66.495 57.515 -66.495 57.515 -67 56 C-67.14613432 54.54126321 -67.24680474 53.07766641 -67.31640625 51.61328125 C-67.35830078 50.75669922 -67.40019531 49.90011719 -67.44335938 49.01757812 C-67.48267578 48.12490234 -67.52199219 47.23222656 -67.5625 46.3125 C-67.60568359 45.43916016 -67.64886719 44.56582031 -67.69335938 43.66601562 C-67.8818162 39.66056023 -68.01662734 35.67790143 -67.96484375 31.66796875 C-67.88201659 28.18817065 -67.88201659 28.18817065 -68.49169922 25.58398438 C-69.35603009 21.19009486 -69.18447316 16.7770923 -69.1875 12.3125 C-69.19974609 11.35021484 -69.21199219 10.38792969 -69.22460938 9.39648438 C-69.22654297 8.47802734 -69.22847656 7.55957031 -69.23046875 6.61328125 C-69.23457764 5.77579346 -69.23868652 4.93830566 -69.24291992 4.07543945 C-69 2 -69 2 -67 0 C-64.27302777 -0.17170903 -61.66093532 -0.2324568 -58.9375 -0.1875 C-58.19177734 -0.18685547 -57.44605469 -0.18621094 -56.67773438 -0.18554688 C-51.14028159 -0.14028159 -51.14028159 -0.14028159 -50 1 C-49.93588218 3.8778376 -49.93399073 6.7323606 -49.97265625 9.609375 C-49.98532647 11.4153625 -49.99768558 13.22135221 -50.00976562 15.02734375 C-50.03435687 17.87067565 -50.06206977 20.71389195 -50.09594727 23.55712891 C-50.72686161 41.48243947 -50.72686161 41.48243947 -46.375 58.625 C-42.65295552 62.34704448 -38.9388999 63.9265275 -33.65625 64.05859375 C-28.06107169 63.62030478 -24.04117816 62.33277504 -20.25 58 C-18.1308375 54.60934 -17.86405872 51.8062845 -17.81054688 47.90185547 C-17.78547058 46.34541824 -17.78547058 46.34541824 -17.7598877 44.75753784 C-17.74631226 43.63872223 -17.73273682 42.51990662 -17.71875 41.3671875 C-17.70034058 40.21960968 -17.68193115 39.07203186 -17.66296387 37.88967896 C-17.58413373 32.96902959 -17.5163566 28.04824234 -17.44775391 23.12744141 C-17.39618238 19.54061786 -17.33888437 15.95391789 -17.28125 12.3671875 C-17.26767456 11.24432343 -17.25409912 10.12145935 -17.2401123 8.96456909 C-17.21503601 7.41758835 -17.21503601 7.41758835 -17.18945312 5.83935547 C-17.17066101 4.47059769 -17.17066101 4.47059769 -17.15148926 3.07418823 C-17 1 -17 1 -16 0 C-14.25739913 -0.26314443 -12.50469034 -0.46079101 -10.75 -0.625 C-9.79609375 -0.72039062 -8.8421875 -0.81578125 -7.859375 -0.9140625 C-5.05155872 -0.99845042 -2.71923383 -0.66492214 0 0 Z " fill="#002B43" transform="translate(669,484)"/>
<path d="M0 0 C0.74886475 0.00523682 1.49772949 0.01047363 2.26928711 0.01586914 C3.36188843 0.01961548 3.36188843 0.01961548 4.4765625 0.0234375 C5.40718506 0.0325415 6.33780762 0.04164551 7.29663086 0.05102539 C8.89094811 0.0625141 10.485268 0.0736403 12.07958984 0.08447266 C13.46443685 0.0941569 14.84928385 0.10384115 16.23413086 0.11352539 C21.43963277 13.10356291 26.62273219 26.1022521 31.77124023 39.11499023 C32.49943632 40.95476391 33.22828273 42.79428032 33.95776367 44.63354492 C38.49985891 56.08585362 42.94673369 67.56325038 47.23413086 79.11352539 C40.96413086 79.11352539 34.69413086 79.11352539 28.23413086 79.11352539 C26.58413086 74.49352539 24.93413086 69.87352539 23.23413086 65.11352539 C12.67413086 65.11352539 2.11413086 65.11352539 -8.76586914 65.11352539 C-11.58513048 72.01029093 -11.58513048 72.01029093 -13.76586914 79.11352539 C-20.03586914 79.11352539 -26.30586914 79.11352539 -32.76586914 79.11352539 C-30.52219729 71.12605362 -27.64632049 63.54219561 -24.51586914 55.86352539 C-23.44984878 53.23030519 -22.38711705 50.5957618 -21.32446289 47.96118164 C-21.04418747 47.26740921 -20.76391205 46.57363678 -20.47514343 45.85884094 C-18.17794658 40.16280202 -15.92141712 34.45125517 -13.67602539 28.73461914 C-13.33463531 27.86602264 -12.99324524 26.99742615 -12.64151001 26.10250854 C-11.28177114 22.641762 -9.92260407 19.18080155 -8.56774902 15.71813965 C-7.62170882 13.30087081 -6.67257155 10.8848383 -5.72290039 8.46899414 C-5.43802261 7.73813095 -5.15314484 7.00726776 -4.8596344 6.2542572 C-2.45831032 0.15804152 -2.45831032 0.15804152 0 0 Z M6.23413086 21.11352539 C7.23413086 23.11352539 7.23413086 23.11352539 7.23413086 23.11352539 Z M5.23413086 24.11352539 C3.91507759 27.5068493 2.60505685 30.90359108 1.29663086 34.30102539 C0.92344727 35.26073242 0.55026367 36.22043945 0.16577148 37.20922852 C-0.19194336 38.14057617 -0.5496582 39.07192383 -0.91821289 40.03149414 C-1.24813232 40.88509521 -1.57805176 41.73869629 -1.91796875 42.61816406 C-2.95313943 45.48746178 -2.95313943 45.48746178 -3.76586914 50.11352539 C3.49413086 49.78352539 10.75413086 49.45352539 18.23413086 49.11352539 C16.83650296 45.12670221 15.41737687 41.15002568 13.98413086 37.17602539 C13.58838867 36.0397168 13.19264648 34.9034082 12.78491211 33.73266602 C12.39174805 32.65307617 11.99858398 31.57348633 11.59350586 30.46118164 C11.23740234 29.46094971 10.88129883 28.46071777 10.5144043 27.43017578 C9.45961732 24.93720501 9.45961732 24.93720501 7.08666992 24.27929688 C6.47533203 24.22459229 5.86399414 24.1698877 5.23413086 24.11352539 Z " fill="#012A43" transform="translate(469.765869140625,483.886474609375)"/>
<path d="M0 0 C0 5.61 0 11.22 0 17 C-2.25199219 16.98839844 -4.50398437 16.97679687 -6.82421875 16.96484375 C-9.01521667 16.95703582 -11.20621301 16.95096894 -13.3972168 16.94506836 C-14.91512755 16.94005234 -16.4330335 16.93323797 -17.95092773 16.92456055 C-20.13787016 16.91237503 -22.32474846 16.90674428 -24.51171875 16.90234375 C-26.48338013 16.89448853 -26.48338013 16.89448853 -28.49487305 16.88647461 C-32.27624752 16.91288167 -32.27624752 16.91288167 -37 18 C-37 22.29 -37 26.58 -37 31 C-33.82212459 32.0592918 -31.57411057 32.11458939 -28.23828125 32.09765625 C-27.12001953 32.09443359 -26.00175781 32.09121094 -24.84960938 32.08789062 C-23.68236328 32.07951172 -22.51511719 32.07113281 -21.3125 32.0625 C-20.13365234 32.05798828 -18.95480469 32.05347656 -17.74023438 32.04882812 C-14.82680133 32.03703285 -11.91339433 32.01909727 -9 32 C-9 37.28 -9 42.56 -9 48 C-18.24 48 -27.48 48 -37 48 C-37 52.95 -37 57.9 -37 63 C-33.88045872 64.55977064 -30.57040616 64.12104126 -27.1484375 64.09765625 C-25.98738998 64.09553383 -25.98738998 64.09553383 -24.80288696 64.09336853 C-22.32688558 64.08776403 -19.85097412 64.07521083 -17.375 64.0625 C-15.69791797 64.05748558 -14.02083453 64.05292257 -12.34375 64.04882812 C-8.22913194 64.03779315 -4.11458122 64.02052554 0 64 C0.95611549 67.50685958 1.10211174 70.60571981 1.0625 74.25 C1.05347656 75.32765625 1.04445313 76.4053125 1.03515625 77.515625 C1.02355469 78.33546875 1.01195312 79.1553125 1 80 C-1.52744088 81.26372044 -3.26380308 81.12022795 -6.09228516 81.11352539 C-7.68370834 81.11341209 -7.68370834 81.11341209 -9.30728149 81.11329651 C-11.03076309 81.10555458 -11.03076309 81.10555458 -12.7890625 81.09765625 C-14.54940323 81.09553383 -14.54940323 81.09553383 -16.3453064 81.09336853 C-20.10522985 81.08775689 -23.86509445 81.07520238 -27.625 81.0625 C-30.16926998 81.0574865 -32.71354088 81.05292333 -35.2578125 81.04882812 C-41.50522853 81.03778368 -47.75261006 81.02103418 -54 81 C-55.18023432 77.45929704 -55.12710489 74.65214306 -55.12939453 70.9140625 C-55.13114685 70.19667908 -55.13289917 69.47929565 -55.13470459 68.74017334 C-55.13910645 66.3684243 -55.13619097 63.9967498 -55.1328125 61.625 C-55.13348602 59.97737616 -55.13445644 58.32975241 -55.13571167 56.68212891 C-55.13718638 53.22883152 -55.13504133 49.77556 -55.13037109 46.32226562 C-55.12467394 41.89354392 -55.12795415 37.46488281 -55.13394356 33.03616333 C-55.13755526 29.63386579 -55.13640777 26.23158264 -55.13381577 22.82928467 C-55.13314819 21.19618726 -55.13396904 19.56308856 -55.13629532 17.92999268 C-55.1388318 15.64860568 -55.13496715 13.36731715 -55.12939453 11.0859375 C-55.12859894 9.7870459 -55.12780334 8.4881543 -55.12698364 7.14990234 C-55 4 -55 4 -54 1 C-46.4702987 0.85745344 -38.94059467 0.71505214 -31.41088867 0.57275391 C-28.84708595 0.52428514 -26.28328386 0.47578258 -23.71948242 0.42724609 C-20.04345869 0.3576594 -16.36743271 0.28819251 -12.69140625 0.21875 C-11.53725723 0.19687622 -10.38310822 0.17500244 -9.19398499 0.15246582 C-8.13296066 0.13244507 -7.07193634 0.11242432 -5.97875977 0.09179688 C-5.03944107 0.07403198 -4.10012238 0.05626709 -3.13233948 0.03796387 C-1 0 -1 0 0 0 Z " fill="#002B44" transform="translate(809,483)"/>
<path d="M0 0 C0.44988281 0.37898438 0.89976562 0.75796875 1.36328125 1.1484375 C1.36328125 1.8084375 1.36328125 2.4684375 1.36328125 3.1484375 C2.02328125 3.1484375 2.68328125 3.1484375 3.36328125 3.1484375 C4.87109375 4.9765625 4.87109375 4.9765625 6.48828125 7.3984375 C7.02710938 8.18734375 7.5659375 8.97625 8.12109375 9.7890625 C9.36328125 12.1484375 9.36328125 12.1484375 9.36328125 16.1484375 C7.47294365 16.85090745 5.57571297 17.53484599 3.67578125 18.2109375 C2.62003906 18.59378906 1.56429687 18.97664063 0.4765625 19.37109375 C-2.80176903 20.1896483 -4.48089231 20.297482 -7.63671875 19.1484375 C-9.19140625 17.625 -9.19140625 17.625 -10.51171875 15.7734375 C-14.00715201 11.45294004 -17.41833863 9.56982933 -23.0234375 8.8359375 C-28.45329955 8.56984931 -32.25196542 9.44207805 -36.9453125 12.17578125 C-38.63671875 13.1484375 -38.63671875 13.1484375 -41.63671875 14.1484375 C-42.77217437 16.44378008 -42.77217437 16.44378008 -43.63671875 19.1484375 C-43.97058594 19.9115625 -44.30445313 20.6746875 -44.6484375 21.4609375 C-47.37010293 28.86214626 -47.54294269 37.78334944 -44.63671875 45.1484375 C-41.70353818 50.84225861 -38.91539498 55.0110158 -32.63671875 57.1484375 C-25.89042562 59.10131183 -19.74861473 58.92988956 -13.6015625 55.5703125 C-10.02176025 52.97975978 -7.33255438 49.61932587 -4.63671875 46.1484375 C0.59600758 47.78802508 5.51524761 49.53795785 10.36328125 52.1484375 C5.73273443 61.76572704 -0.43650898 69.33339841 -10.63671875 73.1484375 C-20.64734397 76.48531257 -32.28422813 76.50607488 -41.98046875 72.078125 C-51.73769245 66.90679644 -58.74248655 60.06783103 -62.44921875 49.5234375 C-66.22445647 36.66542197 -65.62775343 23.22230385 -59.26171875 11.2734375 C-53.47102698 1.72568977 -46.74966743 -3.82967899 -36.015625 -7.12109375 C-22.59659154 -10.02208711 -11.38408543 -7.16353272 0 0 Z " fill="#002B44" transform="translate(882.63671875,489.8515625)"/>
<path d="M0 0 C5.61 0.33 11.22 0.66 17 1 C17.56509277 2.48846436 18.13018555 3.97692871 18.71240234 5.51049805 C20.81042774 11.03638311 22.90903281 16.56204787 25.0078125 22.08764648 C25.91584822 24.47853696 26.82372702 26.86948704 27.73144531 29.26049805 C29.03669582 32.69856217 30.3425117 36.13641109 31.6484375 39.57421875 C32.25635635 41.17604256 32.25635635 41.17604256 32.8765564 42.81022644 C33.25679962 43.81088638 33.63704285 44.81154633 34.02880859 45.8425293 C34.5284462 47.15824165 34.5284462 47.15824165 35.03817749 48.50053406 C36.00363572 51.00944805 36.99595289 53.50630708 38 56 C38.42821045 54.82606689 38.8564209 53.65213379 39.29760742 52.44262695 C40.90861401 48.02701018 42.52111428 43.61194005 44.1340332 39.19702148 C44.82779102 37.29742737 45.52116037 35.39769133 46.21411133 33.49780273 C57.53293429 2.46706571 57.53293429 2.46706571 59 1 C60.34267413 0.91368126 61.68974322 0.89293527 63.03515625 0.90234375 C63.84404297 0.90556641 64.65292969 0.90878906 65.48632812 0.91210938 C66.33646484 0.92048828 67.18660156 0.92886719 68.0625 0.9375 C68.91650391 0.94201172 69.77050781 0.94652344 70.65039062 0.95117188 C72.76695663 0.96299627 74.88348685 0.98093231 77 1 C76.43135457 5.0931211 75.51737571 8.59631925 73.91796875 12.40234375 C73.48637451 13.44229492 73.05478027 14.48224609 72.61010742 15.55371094 C72.14064697 16.67036133 71.67118652 17.78701172 71.1875 18.9375 C70.18509165 21.35711783 69.18450401 23.77737941 68.1875 26.19921875 C67.92805099 26.82861359 67.66860199 27.45800842 67.40129089 28.10647583 C63.87538925 36.69262604 60.5639815 45.36243775 57.23706055 54.02709961 C53.89770599 62.71565353 50.47194073 71.36373975 47 80 C41.06 80 35.12 80 29 80 C27.49590211 76.20991207 25.9965532 72.41806576 24.5 68.625 C24.07074219 67.54476562 23.64148438 66.46453125 23.19921875 65.3515625 C22.59013672 63.8046875 22.59013672 63.8046875 21.96875 62.2265625 C21.59169922 61.27346191 21.21464844 60.32036133 20.82617188 59.33837891 C20 57 20 57 20 55 C19.34 54.67 18.68 54.34 18 54 C17.12687184 51.77949061 16.36113421 49.57927098 15.625 47.3125 C12.16367303 37.03574873 8.05303139 27.02167385 3.96337891 16.98364258 C3.70250488 16.339776 3.44163086 15.69590942 3.17285156 15.03253174 C2.45354621 13.2575856 1.73006732 11.48433247 1.00634766 9.71118164 C0 7 0 7 0 5 C-0.66 4.67 -1.32 4.34 -2 4 C-1.34 2.68 -0.68 1.36 0 0 Z " fill="#022940" transform="translate(366,483)"/>
<path d="M0 0 C2.13409821 0.05339303 4.2682129 0.10613125 6.40234375 0.15820312 C11.56011642 0.28544601 16.71758695 0.4214595 21.875 0.5625 C21.875 5.8425 21.875 11.1225 21.875 16.5625 C13.955 16.5625 6.035 16.5625 -2.125 16.5625 C-2.125 37.3525 -2.125 58.1425 -2.125 79.5625 C-7.735 79.5625 -13.345 79.5625 -19.125 79.5625 C-19.455 59.1025 -19.785 38.6425 -20.125 17.5625 C-27.385 17.2325 -34.645 16.9025 -42.125 16.5625 C-42.125 11.2825 -42.125 6.0025 -42.125 0.5625 C-28.02151342 -0.43018545 -14.1264535 -0.38877099 0 0 Z " fill="#022B44" transform="translate(722.125,483.4375)"/>
<path d="M0 0 C20.79 0 41.58 0 63 0 C63 0.33 63 0.66 63 1 C42.87 1 22.74 1 2 1 C2 4.96 2 8.92 2 13 C3.57652344 12.98839844 5.15304687 12.97679687 6.77734375 12.96484375 C8.83072799 12.95546757 10.8841135 12.94636718 12.9375 12.9375 C14.49887695 12.92493164 14.49887695 12.92493164 16.09179688 12.91210938 C17.08115234 12.90888672 18.07050781 12.90566406 19.08984375 12.90234375 C20.00628662 12.89710693 20.92272949 12.89187012 21.86694336 12.88647461 C24 13 24 13 25 14 C25.09396057 15.93306498 25.11743517 17.86958838 25.11352539 19.80493164 C25.11344986 21.04614273 25.11337433 22.28735382 25.11329651 23.56617737 C25.10818911 24.9308374 25.1029731 26.29549702 25.09765625 27.66015625 C25.095792 29.04878183 25.09436813 30.43740807 25.09336853 31.82603455 C25.08954387 35.48721115 25.07971403 39.1483483 25.06866455 42.80950928 C25.05844932 46.54292263 25.05387067 50.27634234 25.04882812 54.00976562 C25.0380917 61.33986385 25.02049534 68.66992138 25 76 C29.29 76 33.58 76 38 76 C38 55.87 38 35.74 38 15 C38.33 15 38.66 15 39 15 C39 35.79 39 56.58 39 78 C33.72 78 28.44 78 23 78 C22.67 57.54 22.34 37.08 22 16 C14.74 15.67 7.48 15.34 0 15 C0 10.05 0 5.1 0 0 Z " fill="#061421" transform="translate(680,485)"/>
<path d="M0 0 C0.33 0 0.66 0 1 0 C1 24.09 1 48.18 1 73 C4.96 73 8.92 73 13 73 C12.99476318 72.09644775 12.98952637 71.19289551 12.98413086 70.26196289 C12.96712314 66.92048511 12.95456667 63.57905308 12.94506836 60.23754883 C12.94002899 58.78929927 12.93319747 57.34105483 12.92456055 55.89282227 C12.91247753 53.81525412 12.90676789 51.73775303 12.90234375 49.66015625 C12.89448853 47.78275757 12.89448853 47.78275757 12.88647461 45.86743164 C13 43 13 43 14 42 C16.59359322 41.91148471 19.16039691 41.88474055 21.75390625 41.90234375 C22.52935287 41.9037587 23.3047995 41.90517365 24.10374451 41.90663147 C26.59003494 41.91224655 29.0762366 41.92480154 31.5625 41.9375 C33.24413933 41.94251306 34.92578006 41.9470763 36.60742188 41.95117188 C40.73831566 41.96222087 44.86914276 41.97949555 49 42 C49 42.33 49 42.66 49 43 C37.78 43 26.56 43 15 43 C15.33 46.63 15.66 50.26 16 54 C16.06748943 55.88839771 16.1096917 57.77840376 16.09765625 59.66796875 C16.09443359 60.57998047 16.09121094 61.49199219 16.08789062 62.43164062 C16.07951172 63.34107422 16.07113281 64.25050781 16.0625 65.1875 C16.05798828 66.13947266 16.05347656 67.09144531 16.04882812 68.07226562 C16.03722374 70.38153862 16.01929712 72.69077848 16 75 C10.06 75 4.12 75 -2 75 C-2.02257248 67.73305095 -2.04092756 60.46612099 -2.05181217 53.19914436 C-2.05703565 49.82496974 -2.06412361 46.45082029 -2.07543945 43.07666016 C-2.08752436 39.19953741 -2.09323263 35.3224506 -2.09765625 31.4453125 C-2.10539818 29.6233989 -2.10539818 29.6233989 -2.11329651 27.76467896 C-2.11340981 26.08316238 -2.11340981 26.08316238 -2.11352539 24.36767578 C-2.115746 23.37728302 -2.11796661 22.38689026 -2.12025452 21.3664856 C-2 19 -2 19 -1 17 C-0.76725791 14.12089412 -0.58027243 11.25853505 -0.4375 8.375 C-0.39431641 7.57320313 -0.35113281 6.77140625 -0.30664062 5.9453125 C-0.20048543 3.9637489 -0.09973145 1.98189729 0 0 Z " fill="#092234" transform="translate(907,488)"/>
<path d="M0 0 C5.28 0.33 10.56 0.66 16 1 C16 1.66 16 2.32 16 3 C16.66 3.33 17.32 3.66 18 4 C17.67 4.33 17.34 4.66 17 5 C16.8758378 7.26920225 16.82196252 9.5422645 16.79467773 11.81469727 C16.77982834 12.88293228 16.77982834 12.88293228 16.76467896 13.9727478 C16.73297788 16.33726628 16.70827276 18.70180489 16.68359375 21.06640625 C16.66303164 22.70166052 16.64203537 24.33690938 16.62062073 25.97215271 C16.56532328 30.28428786 16.51594799 34.59647158 16.46777344 38.90869141 C16.41761428 43.30570824 16.36189913 47.7026542 16.30664062 52.09960938 C16.19896527 60.73301307 16.09754129 69.3664759 16 78 C16.66 78.33 17.32 78.66 18 79 C17 80 17 80 13.18359375 80.09765625 C11.60152953 80.09191138 10.01948969 80.07889593 8.4375 80.0625 C5.653125 80.041875 2.86875 80.02125 0 80 C0 71.42 0 62.84 0 54 C0.33 54 0.66 54 1 54 C1 61.92 1 69.84 1 78 C7.435 77.505 7.435 77.505 14 77 C14 52.58 14 28.16 14 3 C10.04 3 6.08 3 2 3 C2.02320313 4.48113281 2.04640625 5.96226562 2.0703125 7.48828125 C2.08907 9.42968247 2.10727022 11.37108913 2.125 13.3125 C2.14175781 14.28896484 2.15851562 15.26542969 2.17578125 16.27148438 C2.18222656 17.20927734 2.18867187 18.14707031 2.1953125 19.11328125 C2.20578613 19.97735596 2.21625977 20.84143066 2.22705078 21.73168945 C2 24 2 24 0 27 C-1.21845873 18.16617423 -2.17776858 8.71107431 0 0 Z " fill="#061320" transform="translate(956,483)"/>
<path d="M0 0 C0 0.99 0 1.98 0 3 C0.66 3.33 1.32 3.66 2 4 C1.34 4 0.68 4 0 4 C0.00666183 4.60419769 0.01332367 5.20839539 0.02018738 5.8309021 C0.08690982 12.15820966 0.13195285 18.48541614 0.16479492 24.81298828 C0.17981778 27.16980046 0.20024196 29.52658498 0.22631836 31.88330078 C0.26298821 35.28424942 0.27979196 38.68482621 0.29296875 42.0859375 C0.30845261 43.12801361 0.32393646 44.17008972 0.33988953 45.2437439 C0.34187722 54.01830862 -0.81874331 62.25966199 -6.6875 69.125 C-7.31011719 69.87007812 -7.93273437 70.61515625 -8.57421875 71.3828125 C-9.04472656 71.91648437 -9.51523437 72.45015625 -10 73 C-10.99 72.67 -11.98 72.34 -13 72 C-12.29423828 71.30777344 -12.29423828 71.30777344 -11.57421875 70.6015625 C-10.95160156 69.94929687 -10.32898438 69.29703125 -9.6875 68.625 C-9.07261719 67.99851562 -8.45773437 67.37203125 -7.82421875 66.7265625 C-2.77256226 59.17612089 -2.54015682 50.46352381 -2.48828125 41.6484375 C-2.47033005 40.50839264 -2.45237885 39.36834778 -2.43388367 38.1937561 C-2.38012628 34.5875406 -2.34599574 30.9814548 -2.3125 27.375 C-2.27929646 24.91534667 -2.24480403 22.45571038 -2.20898438 19.99609375 C-2.12441958 13.99748995 -2.05744392 7.99892232 -2 2 C-5.96 2 -9.92 2 -14 2 C-14.01981934 3.53446777 -14.03963867 5.06893555 -14.06005859 6.64990234 C-14.13595767 12.32666835 -14.22469882 18.00317275 -14.31738281 23.6796875 C-14.35573762 26.13959602 -14.39057884 28.59956187 -14.421875 31.05957031 C-14.46738451 34.58940163 -14.52540198 38.11883595 -14.5859375 41.6484375 C-14.59748871 42.75367767 -14.60903992 43.85891785 -14.62094116 44.99765015 C-14.64081085 46.01855743 -14.66068054 47.03946472 -14.68115234 48.09130859 C-14.69447601 48.99287689 -14.70779968 49.89444519 -14.7215271 50.82333374 C-15 53 -15 53 -17 55 C-17.02526605 47.32788798 -17.04283123 39.6557866 -17.05493164 31.98364258 C-17.05997377 29.37133381 -17.06680725 26.75902789 -17.07543945 24.14672852 C-17.08751036 20.40119732 -17.09322935 16.65570328 -17.09765625 12.91015625 C-17.10281754 11.73413345 -17.10797882 10.55811066 -17.11329651 9.34645081 C-17.11340981 7.72488319 -17.11340981 7.72488319 -17.11352539 6.07055664 C-17.115746 5.11347305 -17.11796661 4.15638947 -17.12025452 3.17030334 C-17 1 -17 1 -16 0 C-14.25739913 -0.26314443 -12.50469034 -0.46079101 -10.75 -0.625 C-9.31914063 -0.76808594 -9.31914063 -0.76808594 -7.859375 -0.9140625 C-5.05155872 -0.99845042 -2.71923383 -0.66492214 0 0 Z " fill="#0E2433" transform="translate(669,484)"/>
<path d="M0 0 C-2.33607287 2.33607287 -4.5162476 2.90261452 -7.63671875 3.828125 C-14.19919553 7.08224572 -18.17696352 12.14489001 -21.625 18.4375 C-22.24604614 19.53070557 -22.24604614 19.53070557 -22.87963867 20.64599609 C-23.78331799 22.24060697 -24.68079192 23.83874686 -25.57275391 25.43994141 C-27.05972557 28.10713006 -28.56490433 30.76336488 -30.07421875 33.41796875 C-33.39778844 39.27024254 -36.69987746 45.13448135 -40 51 C-42.3106666 55.10520271 -44.62355125 59.20914662 -46.9375 63.3125 C-47.45675049 64.23627441 -47.97600098 65.16004883 -48.51098633 66.11181641 C-51.48887374 71.39252032 -54.55182297 76.61124742 -57.68530273 81.80102539 C-59.21156118 84.35385916 -60.65586715 86.94197991 -62.0625 89.5625 C-64.31917073 93.75515667 -66.63816627 97.90426845 -69.01953125 102.02734375 C-70.00498487 104.01002933 -70.55024871 105.83829219 -71 108 C-71.99 108 -72.98 108 -74 108 C-73.41886953 104.2819174 -72.39332505 101.54157822 -70.515625 98.2890625 C-69.99959717 97.38647705 -69.48356934 96.4838916 -68.9519043 95.55395508 C-68.39027588 94.5873999 -67.82864746 93.62084473 -67.25 92.625 C-66.05318409 90.53787585 -64.85657502 88.45063308 -63.66015625 86.36328125 C-63.0480127 85.30061035 -62.43586914 84.23793945 -61.80517578 83.14306641 C-59.07083959 78.38220028 -56.38115656 73.59645425 -53.6875 68.8125 C-48.09668131 58.91341183 -42.47871998 49.0296406 -36.82128906 39.16845703 C-36.48721039 38.58612305 -36.15313171 38.00378906 -35.80892944 37.40380859 C-35.47881866 36.82840332 -35.14870789 36.25299805 -34.80859375 35.66015625 C-32.44314879 31.53523091 -30.09972795 27.39976028 -27.78515625 23.24609375 C-27.29869629 22.38209961 -26.81223633 21.51810547 -26.31103516 20.62792969 C-25.43561671 19.07252926 -24.56848342 17.51241586 -23.71240234 15.94628906 C-18.34521427 6.47686207 -11.51529839 -0.6909179 0 0 Z " fill="#F58326" transform="translate(301,379)"/>
<path d="M0 0 C17.49 0 34.98 0 53 0 C53 3.63 53 7.26 53 11 C52.67 11 52.34 11 52 11 C52 8.03 52 5.06 52 2 C35.5 2 19 2 2 2 C2 22.79 2 43.58 2 65 C1.34 65 0.68 65 0 65 C-1.06332809 61.81001574 -1.12686251 59.53521728 -1.12939453 56.18334961 C-1.13254669 54.98878647 -1.13569885 53.79422333 -1.13894653 52.5634613 C-1.1369223 51.27279251 -1.13489807 49.98212372 -1.1328125 48.65234375 C-1.13348611 47.31620771 -1.13445662 45.98007178 -1.13571167 44.64393616 C-1.13718544 41.84553865 -1.13504405 39.04717309 -1.13037109 36.2487793 C-1.12466846 32.65846438 -1.12795819 29.06822414 -1.13394356 25.47791195 C-1.13755312 22.71988866 -1.13640886 19.96188315 -1.13381577 17.20385933 C-1.13282272 15.23510311 -1.13586366 13.26634621 -1.13894653 11.29759216 C-1.13579437 10.10618118 -1.13264221 8.9147702 -1.12939453 7.68725586 C-1.12820114 6.10865028 -1.12820114 6.10865028 -1.12698364 4.49815369 C-1 2 -1 2 0 0 Z " fill="#051A2A" transform="translate(755,485)"/>
<path d="M0 0 C7.90669739 0.49570484 15.77393857 0.63171228 23.6953125 0.5859375 C25.34731155 0.57755356 25.34731155 0.57755356 27.03268433 0.56900024 C31.58722591 0.54171914 36.14163077 0.50630716 40.69604492 0.46264648 C44.070806 0.43249137 47.44546008 0.4147151 50.8203125 0.3984375 C51.8453035 0.38497787 52.87029449 0.37151825 53.92634583 0.35765076 C58.99472457 0.33979901 63.14997291 0.52334737 67.89453125 2.55859375 C67.89453125 2.88859375 67.89453125 3.21859375 67.89453125 3.55859375 C42.81453125 3.55859375 17.73453125 3.55859375 -8.10546875 3.55859375 C-4.80546875 9.49859375 -1.50546875 15.43859375 1.89453125 21.55859375 C2.88453125 23.53859375 3.87453125 25.51859375 4.89453125 27.55859375 C4.23453125 27.88859375 3.57453125 28.21859375 2.89453125 28.55859375 C0.57390247 24.64668942 -1.73554493 20.72829913 -4.04296875 16.80859375 C-4.70232422 15.69742187 -5.36167969 14.58625 -6.04101562 13.44140625 C-6.66943359 12.37148438 -7.29785156 11.3015625 -7.9453125 10.19921875 C-8.52659912 9.21469727 -9.10788574 8.23017578 -9.70678711 7.21582031 C-10.90889095 4.93205382 -11.64294044 3.07767448 -12.10546875 0.55859375 C-8.10327905 -0.85529082 -4.14622147 -0.3022889 0 0 Z " fill="#081B2C" transform="translate(71.10546875,376.44140625)"/>
<path d="M0 0 C0.99 0.495 0.99 0.495 2 1 C2 4.96 2 8.92 2 13 C5.17787541 14.0592918 7.42588943 14.11458939 10.76171875 14.09765625 C12.43911133 14.09282227 12.43911133 14.09282227 14.15039062 14.08789062 C15.31763672 14.07951172 16.48488281 14.07113281 17.6875 14.0625 C18.86634766 14.05798828 20.04519531 14.05347656 21.25976562 14.04882812 C24.17319867 14.03703285 27.08660567 14.01909727 30 14 C30 19.28 30 24.56 30 30 C20.76 30 11.52 30 2 30 C1.67 34.29 1.34 38.58 1 43 C0.67 43 0.34 43 0 43 C0 37.72 0 32.44 0 27 C9.24 27 18.48 27 28 27 C28 23.7 28 20.4 28 17 C26.78098999 17.00785522 26.78098999 17.00785522 25.53735352 17.01586914 C21.87907678 17.03656994 18.22081233 17.04963803 14.5625 17.0625 C13.28310547 17.07087891 12.00371094 17.07925781 10.68554688 17.08789062 C8.86313477 17.09272461 8.86313477 17.09272461 7.00390625 17.09765625 C5.87799072 17.10289307 4.7520752 17.10812988 3.59204102 17.11352539 C1 17 1 17 0 16 C-0.07319621 13.30345146 -0.09242537 10.63308542 -0.0625 7.9375 C-0.05798828 7.17888672 -0.05347656 6.42027344 -0.04882812 5.63867188 C-0.0370068 3.75908129 -0.01907078 1.87953101 0 0 Z " fill="#061826" transform="translate(770,501)"/>
<path d="M0 0 C2.68050073 1.05305386 3.9371087 1.91614494 5.6875 4.25 C10.19903665 9.61507061 16.20860639 13.28605825 23 15 C26.13128502 15.22285595 29.23795605 15.19004238 32.375 15.125 C33.62216797 15.11146484 33.62216797 15.11146484 34.89453125 15.09765625 C36.92981337 15.0742622 38.96494564 15.03839725 41 15 C39.47547186 20.39580183 36.96188008 24.84117338 34.125 29.625 C33.64466309 30.44170166 33.16432617 31.25840332 32.66943359 32.09985352 C31.64676117 33.83549263 30.62146271 35.56958669 29.59375 37.30224609 C27.97447642 40.04320398 26.37675036 42.79592915 24.78125 45.55078125 C23.72987096 47.34676665 22.67780654 49.14235103 21.625 50.9375 C21.13789551 51.78328613 20.65079102 52.62907227 20.14892578 53.50048828 C17.56546526 57.86301568 15.30827107 61.12520821 11 64 C12.59972604 59.42056448 15.01826902 55.61344127 17.625 51.5625 C21.70647937 45.13430012 25.57398532 38.62325363 29.30859375 31.98828125 C30.39250747 30.07328356 31.5134387 28.17849808 32.6796875 26.3125 C34.25280871 23.55721079 34.63602553 21.13018045 35 18 C34.24976563 18.04640625 33.49953125 18.0928125 32.7265625 18.140625 C22.1767781 18.5126577 15.49416971 16.48532229 7.5625 9.4375 C6.02581277 7.97481055 4.50289975 6.49738452 3 5 C2.41089844 4.45472656 1.82179687 3.90945313 1.21484375 3.34765625 C0 2 0 2 0 0 Z " fill="#121E2B" transform="translate(237,528)"/>
<path d="M0 0 C6.50522027 0.16680052 10.59793201 3.54798959 15 8 C22.41156277 17.54132218 28.14379309 28.2951635 34.05859375 38.796875 C36.67322753 43.43868006 39.35028708 48.03969386 42.0625 52.625 C42.65381714 53.63046875 42.65381714 53.63046875 43.25708008 54.65625 C45.52101127 58.50552989 47.80460871 62.34220344 50.1015625 66.171875 C51.13050699 67.90607284 52.15915869 69.64044443 53.1875 71.375 C53.68193604 72.19049316 54.17637207 73.00598633 54.68579102 73.84619141 C55.13365967 74.60593262 55.58152832 75.36567383 56.04296875 76.1484375 C56.44539795 76.82052246 56.84782715 77.49260742 57.26245117 78.18505859 C58 80 58 80 57 83 C55.18645634 79.93811701 53.3742439 76.87544826 51.5625 73.8125 C50.98773926 72.84086914 50.41297852 71.86923828 49.82080078 70.86816406 C46.08135882 64.54018295 42.35992554 58.20208355 38.65202332 51.85559082 C34.78039864 45.22975962 30.8949068 38.61217019 27 32 C26.43410156 31.03819824 25.86820313 30.07639648 25.28515625 29.08544922 C15.5561963 12.18478223 15.5561963 12.18478223 0 1 C0 0.67 0 0.34 0 0 Z " fill="#0C1C2A" transform="translate(140,380)"/>
<path d="M0 0 C0.34057617 2.98095703 0.34057617 2.98095703 0.29296875 6.7578125 C0.28172974 8.57756592 0.28172974 8.57756592 0.27026367 10.43408203 C0.24295166 11.98208496 0.21563965 13.53008789 0.1875 15.125 C0.125625 20.03375 0.06375 24.9425 0 30 C16.335 30.495 16.335 30.495 33 31 C33 31.33 33 31.66 33 32 C28.03396287 32.16724111 23.06777322 32.32783783 18.10131836 32.48217773 C16.41050377 32.53567115 14.71974642 32.59100598 13.02905273 32.64819336 C10.60412953 32.72990041 8.17908006 32.80506395 5.75390625 32.87890625 C4.99348526 32.90594131 4.23306427 32.93297638 3.44960022 32.96083069 C1.63376666 33.01291299 -0.18345843 33.01186585 -2 33 C-3 32 -3 32 -3.11352539 29.04077148 C-3.10828857 27.74727783 -3.10305176 26.45378418 -3.09765625 25.12109375 C-3.0962413 24.4344313 -3.09482635 23.74776886 -3.09336853 23.04029846 C-3.08775479 20.83932199 -3.07520007 18.63844591 -3.0625 16.4375 C-3.05748676 14.94856917 -3.05292355 13.45963676 -3.04882812 11.97070312 C-3.03778093 8.31376925 -3.02050713 4.65689442 -3 1 C-6.96 1 -10.92 1 -15 1 C-15.33 7.27 -15.66 13.54 -16 20 C-16.66 19.67 -17.32 19.34 -18 19 C-18.2210949 16.04210873 -18.42740245 13.08447236 -18.625 10.125 C-18.68945312 9.28324219 -18.75390625 8.44148438 -18.8203125 7.57421875 C-18.871875 6.76855469 -18.9234375 5.96289062 -18.9765625 5.1328125 C-19.02893066 4.38918457 -19.08129883 3.64555664 -19.13525391 2.87939453 C-19 1 -19 1 -17 -1 C-13.84765625 -1.484375 -13.84765625 -1.484375 -10.0625 -1.75 C-8.81597656 -1.84796875 -7.56945312 -1.9459375 -6.28515625 -2.046875 C-3 -2 -3 -2 0 0 Z " fill="#0E293B" transform="translate(923,485)"/>
<path d="M0 0 C0 5.61 0 11.22 0 17 C-2.22878906 16.98839844 -4.45757813 16.97679687 -6.75390625 16.96484375 C-8.93172056 16.95702709 -11.10953326 16.9509652 -13.28735352 16.94506836 C-14.7915925 16.94006445 -16.29582668 16.93325927 -17.80004883 16.92456055 C-19.97218009 16.91232116 -22.14424659 16.90673214 -24.31640625 16.90234375 C-26.27235718 16.89448853 -26.27235718 16.89448853 -28.26782227 16.88647461 C-31.95201033 16.99854025 -35.36971466 17.40625214 -39 18 C-39 16.68 -39 15.36 -39 14 C-26.79 13.67 -14.58 13.34 -2 13 C-1.67 9.37 -1.34 5.74 -1 2 C-18.49 2 -35.98 2 -54 2 C-54 1.67 -54 1.34 -54 1 C-46.4702987 0.85745344 -38.94059467 0.71505214 -31.41088867 0.57275391 C-28.84708595 0.52428514 -26.28328386 0.47578258 -23.71948242 0.42724609 C-20.04345869 0.3576594 -16.36743271 0.28819251 -12.69140625 0.21875 C-11.53725723 0.19687622 -10.38310822 0.17500244 -9.19398499 0.15246582 C-8.13296066 0.13244507 -7.07193634 0.11242432 -5.97875977 0.09179688 C-5.03944107 0.07403198 -4.10012238 0.05626709 -3.13233948 0.03796387 C-1 0 -1 0 0 0 Z " fill="#133143" transform="translate(809,483)"/>
<path d="M0 0 C0.99494917 2.58775852 1.14197744 3.66197759 0.05053711 6.26049805 C-0.7034436 7.49860229 -0.7034436 7.49860229 -1.47265625 8.76171875 C-2.03581543 9.70394287 -2.59897461 10.64616699 -3.17919922 11.61694336 C-3.80068848 12.63022705 -4.42217773 13.64351074 -5.0625 14.6875 C-6.36056369 16.84746342 -7.65605635 19.00897364 -8.94921875 21.171875 C-9.62001465 22.29142578 -10.29081055 23.41097656 -10.98193359 24.56445312 C-12.9734394 27.95478336 -14.88505558 31.37729972 -16.76953125 34.828125 C-17.37466553 35.93454346 -17.9797998 37.04096191 -18.60327148 38.1809082 C-19.75322567 40.29462446 -20.8951593 42.41273146 -22.02758789 44.53588867 C-30.94027077 60.81338227 -30.94027077 60.81338227 -39 64 C-41.75 64.125 -41.75 64.125 -44 64 C-41.76106212 62.27774009 -39.56647955 60.74554235 -37.125 59.3125 C-30.69443615 54.55388275 -26.91868392 47.44666328 -23.1875 40.5 C-22.31943183 38.91122801 -21.45093352 37.32269097 -20.58203125 35.734375 C-19.93548584 34.54618164 -19.93548584 34.54618164 -19.27587891 33.33398438 C-17.33823698 29.78942701 -15.35935321 26.26856223 -13.375 22.75 C-13.01108154 22.10409912 -12.64716309 21.45819824 -12.2722168 20.79272461 C-11.18283334 18.86104691 -10.09178945 16.93031875 -9 15 C-8.62004883 14.32791504 -8.24009766 13.65583008 -7.84863281 12.96337891 C-6.73459231 10.99517779 -5.61786849 9.02852902 -4.5 7.0625 C-3.8503125 5.91910156 -3.200625 4.77570313 -2.53125 3.59765625 C-1 1 -1 1 0 0 Z " fill="#F58125" transform="translate(322,465)"/>
<path d="M0 0 C0.66 0.33 1.32 0.66 2 1 C1.72285156 1.51949219 1.44570313 2.03898437 1.16015625 2.57421875 C0.79792969 3.27160156 0.43570313 3.96898437 0.0625 4.6875 C-0.29714844 5.37199219 -0.65679688 6.05648438 -1.02734375 6.76171875 C-5.13312225 16.20995603 -4.64617503 31.6239749 -1.4375 41.25 C2.77559335 50.56315371 8.93132076 57.28043026 18.5078125 60.96484375 C20.66038492 61.69698829 22.81353837 62.37746578 25 63 C25 63.33 25 63.66 25 64 C17.07222552 64.84338026 12.11662595 61.19997126 5.8125 56.75 C-3.41008908 47.73235735 -6.78550336 36.9952779 -7.25 24.3125 C-7.14243872 15.49247527 -4.84620829 7.35286775 0 0 Z " fill="#0A1C2B" transform="translate(825,499)"/>
<path d="M0 0 C3.05559111 2.56944892 4.18823571 5.39233216 5.6640625 9.05859375 C6.14617187 10.24904297 6.62828125 11.43949219 7.125 12.66601562 C7.37121094 13.28516846 7.61742187 13.90432129 7.87109375 14.54223633 C8.62223852 16.43055786 9.38428497 18.31417546 10.1484375 20.19726562 C13.84765278 29.39061114 13.84765278 29.39061114 15 34 C19.62 33.67 24.24 33.34 29 33 C31.97 25.74 34.94 18.48 38 11 C38.33 11 38.66 11 39 11 C38.4943121 17.26768097 36.94703655 22.26261958 34.4375 28 C33.303125 30.64 32.16875 33.28 31 36 C25.06 36 19.12 36 13 36 C11.49590211 32.20991207 9.9965532 28.41806576 8.5 24.625 C8.07074219 23.54476562 7.64148438 22.46453125 7.19921875 21.3515625 C6.79316406 20.3203125 6.38710938 19.2890625 5.96875 18.2265625 C5.59169922 17.27346191 5.21464844 16.32036133 4.82617188 15.33837891 C4 13 4 13 4 11 C3.34 10.67 2.68 10.34 2 10 C1.3671875 7.71484375 1.3671875 7.71484375 0.875 4.9375 C0.70742188 4.01839844 0.53984375 3.09929688 0.3671875 2.15234375 C0.24601562 1.44207031 0.12484375 0.73179687 0 0 Z " fill="#0B1B28" transform="translate(382,527)"/>
<path d="M0 0 C0.66 0 1.32 0 2 0 C2.31114746 0.80816162 2.62229492 1.61632324 2.94287109 2.44897461 C8.3773884 16.55379062 13.82214435 30.65345881 19.4375 44.6875 C19.82534668 45.65743896 20.21319336 46.62737793 20.61279297 47.62670898 C22.17605863 51.52005547 23.74617124 55.40607447 25.39501953 59.26416016 C25.85376465 60.33843262 26.31250977 61.41270508 26.78515625 62.51953125 C27.41949585 63.98483276 27.41949585 63.98483276 28.06665039 65.47973633 C29 68 29 68 29 71 C23.39 71 17.78 71 12 71 C12 70.67 12 70.34 12 70 C16.62 70 21.24 70 26 70 C25.0900688 67.33086848 24.17228234 64.66486389 23.25 62 C22.99734375 61.25621094 22.7446875 60.51242187 22.484375 59.74609375 C21.19539642 56.04028034 19.81805967 52.53427631 17.984375 49.0625 C16.51121713 46.2220566 15.49163279 43.503487 14.6328125 40.421875 C12.47468992 32.78813694 9.15369903 25.57405073 6.03759766 18.29345703 C5.2253619 16.39060018 4.42100771 14.4845488 3.6171875 12.578125 C3.13878418 11.45825195 2.66038086 10.33837891 2.16748047 9.18457031 C1.03667535 6.1000404 0.42239247 3.25039899 0 0 Z " fill="#081926" transform="translate(487,491)"/>
<path d="M0 0 C2.95709793 2.74226603 4.90212154 5.29881169 6.75 8.875 C7.26046875 9.83664062 7.7709375 10.79828125 8.296875 11.7890625 C8.85890625 12.84867187 9.4209375 13.90828125 10 15 C18.13492693 30.89415781 18.13492693 30.89415781 32.6875 40.1875 C37.43999081 41.28702464 42.1496186 41.17890751 47 41 C45.35735568 42.99124407 44.43831687 43.91072812 41.87109375 44.43359375 C33.48187094 44.4470596 26.36708055 42.63029585 20.19140625 36.69921875 C15.44686452 31.80223748 12.24545894 26.09884924 9.04272461 20.13549805 C8.05401913 18.29672749 7.04351029 16.47128817 6.02929688 14.64648438 C0.71677021 4.954567 0.71677021 4.954567 0 0 Z " fill="#EB7E27" transform="translate(230,488)"/>
<path d="M0 0 C5.50102837 0.41257713 9.76201664 2.54722675 14 6 C14 6.66 14 7.32 14 8 C14.66 8 15.32 8 16 8 C17.5078125 9.828125 17.5078125 9.828125 19.125 12.25 C19.66382813 13.03890625 20.20265625 13.8278125 20.7578125 14.640625 C22 17 22 17 22 21 C20.1096624 21.70246995 18.21243172 22.38640849 16.3125 23.0625 C15.25675781 23.44535156 14.20101562 23.82820313 13.11328125 24.22265625 C9.83494972 25.0412108 8.15582644 25.1490445 5 24 C3.4453125 22.4765625 3.4453125 22.4765625 2.125 20.625 C-1.66322209 15.95668591 -5.2501843 14.348471 -11.11328125 13.60546875 C-14.0756109 13.34439387 -17.02978271 13.14143892 -20 13 C-17.37167657 10.37167657 -16.04065032 10.64138108 -12.375 10.5625 C-6.3048588 10.67154445 -2.51765449 11.96228109 2 16 C3.84470717 17.92589233 5.40241928 19.85325091 7 22 C10.96 21.01 14.92 20.02 19 19 C15.70370396 10.7592599 11.77988105 7.52041342 4.20703125 3.296875 C2 2 2 2 0 0 Z " fill="#0A1C29" transform="translate(870,485)"/>
<path d="M0 0 C0.98413715 2.58303421 1.11400652 3.70210594 0.1105957 6.32397461 C-0.59963745 7.60026733 -0.59963745 7.60026733 -1.32421875 8.90234375 C-1.85249268 9.86479004 -2.3807666 10.82723633 -2.92504883 11.81884766 C-3.50665771 12.84800293 -4.0882666 13.8771582 -4.6875 14.9375 C-5.57248169 16.53537354 -5.57248169 16.53537354 -6.4753418 18.16552734 C-8.30204322 21.45227346 -10.14753787 24.72771336 -12 28 C-12.55075195 28.97501465 -13.10150391 29.9500293 -13.66894531 30.95458984 C-16.18220692 35.39489131 -18.71295227 39.82442922 -21.265625 44.2421875 C-23.01581663 47.2726797 -24.73628285 50.31593228 -26.421875 53.3828125 C-26.78756592 54.04265137 -27.15325684 54.70249023 -27.5300293 55.38232422 C-28.48563903 57.11096325 -29.43265372 58.84434618 -30.37890625 60.578125 C-32 63 -32 63 -35 64 C-33.72556087 60.67957732 -32.30525446 57.55840492 -30.6015625 54.4375 C-30.12823486 53.56883301 -29.65490723 52.70016602 -29.16723633 51.80517578 C-28.65829834 50.87946777 -28.14936035 49.95375977 -27.625 49 C-27.09479248 48.03175293 -26.56458496 47.06350586 -26.01831055 46.06591797 C-21.38956145 37.64417562 -16.63644323 29.29631522 -11.84765625 20.96484375 C-7.84790295 14.00502838 -3.92271419 7.00343165 0 0 Z " fill="#F78023" transform="translate(368,382)"/>
<path d="M0 0 C1.41008304 -0.01271484 2.82060005 0.0026342 4.23022461 0.04077148 C4.97590195 0.04310287 5.72157928 0.04543427 6.48985291 0.0478363 C8.06431537 0.05757104 9.63874292 0.07935255 11.21289062 0.11230469 C13.62739668 0.16175931 16.03986701 0.17378655 18.45483398 0.17944336 C19.98415261 0.19352781 21.5134535 0.20973167 23.04272461 0.22827148 C23.76669937 0.23363419 24.49067413 0.23899689 25.23658752 0.24452209 C30.33676651 0.36606339 30.33676651 0.36606339 32.57006836 2.59936523 C32.9705428 4.922117 33.30977876 7.25675881 33.57006836 9.59936523 C31.54549456 7.66681752 30.14901044 5.96777835 28.57006836 3.59936523 C25.36581511 3.18082475 25.36581511 3.18082475 21.59350586 3.30639648 C20.56563461 3.31276375 20.56563461 3.31276375 19.51699829 3.31925964 C17.32595707 3.33606771 15.13583204 3.37372119 12.94506836 3.41186523 C11.46070663 3.42690944 9.97633051 3.44059831 8.49194336 3.45288086 C4.85102003 3.48597733 1.21063358 3.53777316 -2.42993164 3.59936523 C-3.07903318 5.18136155 -3.72407858 6.76502247 -4.36743164 8.34936523 C-4.72708008 9.23108398 -5.08672852 10.11280273 -5.45727539 11.02124023 C-6.56111421 13.79677604 -6.56111421 13.79677604 -7.42993164 17.59936523 C-13.69993164 17.59936523 -19.96993164 17.59936523 -26.42993164 17.59936523 C-26.42993164 16.93936523 -26.42993164 16.27936523 -26.42993164 15.59936523 C-20.81993164 15.59936523 -15.20993164 15.59936523 -9.42993164 15.59936523 C-8.99680664 14.05249023 -8.56368164 12.50561523 -8.11743164 10.91186523 C-5.32253432 0.9300891 -5.32253432 0.9300891 0 0 Z " fill="#091724" transform="translate(463.429931640625,545.400634765625)"/>
<path d="M0 0 C4.91424778 2.37842597 7.05813161 5.52723212 9.875 10 C10.30409668 10.66265869 10.73319336 11.32531738 11.17529297 12.00805664 C12.46087283 13.99876339 13.73156165 15.99833996 15 18 C15.73372375 19.14494885 16.46805233 20.28951045 17.203125 21.43359375 C18.81264498 23.94928657 20.41196439 26.4707115 22 29 C15.0871095 30.33826344 7.74719961 31.46983632 1 29 C-4.96664479 23.74812944 -9.52264228 15.52685761 -12 8 C-11.67 7.01 -11.34 6.02 -11 5 C-8.82596202 8.28685366 -6.66204206 11.58024568 -4.5 14.875 C-3.87996094 15.81214844 -3.25992188 16.74929688 -2.62109375 17.71484375 C-2.03457031 18.61074219 -1.44804688 19.50664063 -0.84375 20.4296875 C-0.02680664 21.67081299 -0.02680664 21.67081299 0.80664062 22.93701172 C2 25 2 25 2 27 C6.95 26.67 11.9 26.34 17 26 C12.35136437 18.94403521 7.63812893 12.03633229 2.56640625 5.27734375 C1 3 1 3 0 0 Z " fill="#081927" transform="translate(569,534)"/>
<path d="M0 0 C0.66 0 1.32 0 2 0 C2.3810791 0.66193359 2.7621582 1.32386719 3.15478516 2.00585938 C4.64001473 4.58493146 6.12573564 7.1637196 7.61190796 9.74224854 C8.28698994 10.91354028 8.96197783 12.08488627 9.63687134 13.25628662 C13.39559601 19.7789477 17.16558452 26.29447801 20.97265625 32.7890625 C21.59769043 33.85576172 22.22272461 34.92246094 22.86669922 36.02148438 C24.05230314 38.04232066 25.2400217 40.06191827 26.43017578 42.08007812 C29.49373081 47.30277068 32.36397985 52.54837681 35 58 C31.43074214 56.57334272 30.13937821 55.07707229 28.328125 51.72265625 C27.83610596 50.82925537 27.34408691 49.93585449 26.8371582 49.01538086 C26.313396 48.04093018 25.78963379 47.06647949 25.25 46.0625 C24.10584046 43.98013297 22.95856336 41.89947662 21.80859375 39.8203125 C21.19870605 38.71719727 20.58881836 37.61408203 19.96044922 36.47753906 C17.91260487 32.84497432 15.80315545 29.25657003 13.66015625 25.6796875 C13.29777863 25.07428635 12.935401 24.46888519 12.56204224 23.84513855 C11.1286195 21.45423844 9.69291647 19.06481657 8.24743652 16.68118286 C7.23948171 15.01828191 6.23875399 13.35100695 5.23828125 11.68359375 C4.66118408 10.73025146 4.08408691 9.77690918 3.48950195 8.79467773 C1.95881309 5.92272307 0.93818292 3.11090774 0 0 Z " fill="#071928" transform="translate(145,526)"/>
<path d="M0 0 C0.75834137 -0.00131927 1.51668274 -0.00263855 2.29800415 -0.0039978 C4.7364728 -0.00589811 7.1748245 0.00038211 9.61328125 0.0078125 C10.43960052 0.00869873 11.2659198 0.00958496 12.11727905 0.01049805 C24.41032516 0.02603976 36.65959927 0.2599965 48.92578125 1.1328125 C48.92578125 1.7928125 48.92578125 2.4528125 48.92578125 3.1328125 C27.80578125 3.1328125 6.68578125 3.1328125 -15.07421875 3.1328125 C-15.07421875 2.4728125 -15.07421875 1.8128125 -15.07421875 1.1328125 C-10.0219635 0.30346683 -5.1231165 -0.01431871 0 0 Z " fill="#FB7E1E" transform="translate(319.07421875,376.8671875)"/>
<path d="M0 0 C0.33 0 0.66 0 1 0 C1 3.3 1 6.6 1 10 C18.16 10 35.32 10 53 10 C53 8.35 53 6.7 53 5 C53.66 5.99 54.32 6.98 55 8 C54.67 9.65 54.34 11.3 54 13 C36.18 13 18.36 13 0 13 C-1.06671952 9.79984144 -0.94845472 8.11455706 -0.5625 4.8125 C-0.46066406 3.91144531 -0.35882812 3.01039063 -0.25390625 2.08203125 C-0.17011719 1.39496094 -0.08632813 0.70789063 0 0 Z " fill="#0A1724" transform="translate(755,551)"/>
<path d="M0 0 C5.28 0 10.56 0 16 0 C16.02313319 5.19211491 16.04299243 10.38404622 16.05493164 15.57617188 C16.05991642 17.3372458 16.06670666 19.09831568 16.07543945 20.859375 C16.12259579 30.62351145 16.09018514 40.28051396 15 50 C14.67 50 14.34 50 14 50 C12.88451668 44.63487263 12.87141739 39.458154 12.90234375 34.0078125 C12.9037587 33.06187225 12.90517365 32.11593201 12.90663147 31.1413269 C12.91220516 28.13585171 12.9247528 25.13045247 12.9375 22.125 C12.9425184 20.08073025 12.94708071 18.03645932 12.95117188 15.9921875 C12.96216597 10.99476264 12.97941243 5.99739417 13 1 C6.565 1.495 6.565 1.495 0 2 C0 1.34 0 0.68 0 0 Z " fill="#091E2C" transform="translate(603,485)"/>
<path d="M0 0 C0 0.66 0 1.32 0 2 C-5.41176471 6 -5.41176471 6 -8 6 C-8.433125 7.0828125 -8.433125 7.0828125 -8.875 8.1875 C-9.56339825 9.90849563 -10.27434754 11.62094692 -11.0234375 13.31640625 C-13.73051189 20.75544668 -13.87681186 29.60057229 -11 37 C-7.40738642 44.62335077 -2.74487771 47.9540896 5 51 C1.94922309 51.95787834 1.19914811 52.07626949 -1.9375 50.875 C-8.58010241 46.80810057 -12.77539942 41.45468195 -15 34 C-16.2801432 25.08554828 -16.27062527 15.79850471 -11.50390625 7.921875 C-8.66920597 4.29934893 -4.89986066 0 0 0 Z " fill="#081623" transform="translate(849,498)"/>
<path d="M0 0 C5.29813494 0.32109909 8.56701897 3.2082276 12 7 C16.21468838 13.5941521 17.87344794 20.21175588 17 28 C14.83842504 35.91794306 11.39902284 40.3640231 4.9375 45.375 C2 47 2 47 -0.18359375 46.6015625 C-0.78300781 46.40304687 -1.38242187 46.20453125 -2 46 C-1.33613281 45.6596875 -0.67226563 45.319375 0.01171875 44.96875 C7.08728484 41.08493562 11.17835253 37.32481568 13.8125 29.625 C13.874375 28.75875 13.93625 27.8925 14 27 C14.07347656 26.28199219 14.14695312 25.56398438 14.22265625 24.82421875 C14.64254432 17.9014487 12.990444 12.68430435 9 7 C6.309921 4.45115015 3.52115519 3.1737184 0 2 C0 1.34 0 0.68 0 0 Z " fill="#091C2A" transform="translate(573,487)"/>
<path d="M0 0 C0.33 0 0.66 0 1 0 C1.74645088 6.1123314 2.10290932 12.16142839 2.2109375 18.31640625 C2.2252179 19.06280365 2.23949829 19.80920105 2.25421143 20.57821655 C2.31188537 23.69100065 2.36650062 26.80361549 2.40136719 29.91674805 C2.50501315 38.47736833 2.85914581 45.91975778 6 54 C5.67 54.99 5.34 55.98 5 57 C4.35165346 55.730447 3.70642185 54.45930294 3.0625 53.1875 C2.70285156 52.47980469 2.34320312 51.77210938 1.97265625 51.04296875 C-0.15093733 46.58256938 -0.3719541 42.29030558 -0.625 37.4375 C-0.67003662 36.57866211 -0.71507324 35.71982422 -0.76147461 34.83496094 C-1.2557462 23.21495439 -0.60382799 11.60554665 0 0 Z " fill="#071B2B" transform="translate(602,494)"/>
<path d="M0 0 C0.33 0 0.66 0 1 0 C1 7.92 1 15.84 1 24 C4.50625 23.9175 8.0125 23.835 11.625 23.75 C13.265896 23.72631348 13.265896 23.72631348 14.93994141 23.70214844 C20.86639536 23.49557602 24.5007506 22.97608086 29 19 C30.28446919 16.43106162 30.32977144 14.23423663 30.5625 11.375 C30.64628906 10.37210937 30.73007812 9.36921875 30.81640625 8.3359375 C30.90728516 7.17964844 30.90728516 7.17964844 31 6 C33.37160148 8.37160148 33.31983352 9.00621122 33.375 12.25 C33.24018492 16.90860982 32.2911607 19.54428126 29 23 C22.86798795 25.85619104 17.83182107 26.41662909 11.125 26.25 C10.27164063 26.24484375 9.41828125 26.2396875 8.5390625 26.234375 C2.31107955 26.15553977 2.31107955 26.15553977 0 25 C0 16.75 0 8.5 0 0 Z " fill="#011121" transform="translate(541,498)"/>
<path d="M0 0 C3.1027091 2.86643233 5.14229622 5.67086321 7.171875 9.3671875 C7.75050293 10.41189209 8.32913086 11.45659668 8.92529297 12.53295898 C9.52744629 13.63583252 10.12959961 14.73870605 10.75 15.875 C11.99681883 18.13443309 13.24421149 20.39354961 14.4921875 22.65234375 C15.09256836 23.74272949 15.69294922 24.83311523 16.31152344 25.95654297 C19.04754307 30.88818275 21.88911093 35.75653851 24.7421875 40.62109375 C26 43 26 43 26 45 C25.34 45 24.68 45 24 45 C23.66379639 44.40276123 23.32759277 43.80552246 22.98120117 43.19018555 C21.38446134 40.35530151 19.78606714 37.52135403 18.1875 34.6875 C17.60524658 33.65399414 17.02299316 32.62048828 16.4230957 31.55566406 C13.54817902 26.46395827 10.654339 21.3864453 7.6875 16.34765625 C7.18065674 15.48503174 6.67381348 14.62240723 6.15161133 13.73364258 C5.1908666 12.10388501 4.22472652 10.4772935 3.25268555 8.85424805 C2.8225415 8.12375244 2.39239746 7.39325684 1.94921875 6.640625 C1.57112061 6.00672852 1.19302246 5.37283203 0.8034668 4.71972656 C0 3 0 3 0 0 Z " fill="#081928" transform="translate(119,480)"/>
<path d="M0 0 C0.66 0 1.32 0 2 0 C0.05776676 5.99319103 -2.05451564 11.88968571 -4.35546875 17.75390625 C-4.81521843 18.93339088 -4.81521843 18.93339088 -5.28425598 20.13670349 C-6.2499414 22.61278003 -7.21866264 25.08765529 -8.1875 27.5625 C-8.84850972 29.25578036 -9.5093188 30.94913907 -10.16992188 32.64257812 C-11.77763331 36.76262667 -13.38806577 40.88160186 -15 45 C-15.99 45 -16.98 45 -18 45 C-16.24174334 40.51939329 -14.48181802 36.03944665 -12.72045898 31.56005859 C-12.12366522 30.04167661 -11.52729828 28.52312679 -10.93139648 27.00439453 C-7.38277924 17.96124041 -3.78631393 8.94691157 0 0 Z " fill="#091A27" transform="translate(439,490)"/>
<path d="M0 0 C0.33 0 0.66 0 1 0 C1.21863321 5.79780043 1.41515939 11.59579487 1.59204102 17.39501953 C1.6551132 19.36396872 1.72401656 21.33274073 1.79907227 23.30126953 C1.90648414 26.1458819 1.99226971 28.99049087 2.07421875 31.8359375 C2.11157639 32.70302338 2.14893402 33.57010925 2.18742371 34.46347046 C2.38792603 42.78284604 0.8369901 50.66238894 -4.6875 57.125 C-5.62142578 58.24261719 -5.62142578 58.24261719 -6.57421875 59.3828125 C-7.04472656 59.91648437 -7.51523437 60.45015625 -8 61 C-8.99 60.67 -9.98 60.34 -11 60 C-10.52949219 59.53851562 -10.05898438 59.07703125 -9.57421875 58.6015625 C-8.64029297 57.62316406 -8.64029297 57.62316406 -7.6875 56.625 C-7.07261719 55.99851562 -6.45773437 55.37203125 -5.82421875 54.7265625 C-1.23434354 47.86632076 -0.54764237 39.89099353 -0.48828125 31.8359375 C-0.47033005 30.91785309 -0.45237885 29.99976868 -0.43388367 29.05386353 C-0.38029527 26.16095387 -0.34605209 23.26820415 -0.3125 20.375 C-0.27928136 18.39711339 -0.24478759 16.41924776 -0.20898438 14.44140625 C-0.12459926 9.62772065 -0.05754512 4.81407822 0 0 Z " fill="#04111D" transform="translate(667,496)"/>
<path d="M0 0 C1.47583955 0.0001591 2.95168467 0.00585225 4.42749023 0.01586914 C5.20293686 0.01728409 5.97838348 0.01869904 6.77732849 0.02015686 C9.26361893 0.02577194 11.74982059 0.03832693 14.23608398 0.05102539 C15.91772331 0.05603845 17.59936405 0.06060169 19.28100586 0.06469727 C23.41189965 0.07574626 27.54272674 0.09302094 31.67358398 0.11352539 C31.67358398 0.44352539 31.67358398 0.77352539 31.67358398 1.11352539 C20.45358398 1.11352539 9.23358398 1.11352539 -2.32641602 1.11352539 C-1.99641602 4.74352539 -1.66641602 8.37352539 -1.32641602 12.11352539 C-1.54922433 15.39930778 -1.82400096 18.55221171 -2.26391602 21.80102539 C-2.36381836 22.60991211 -2.4637207 23.41879883 -2.56665039 24.25219727 C-2.80959001 26.20728278 -3.0664596 28.16062967 -3.32641602 30.11352539 C-3.65641602 30.11352539 -3.98641602 30.11352539 -4.32641602 30.11352539 C-4.35107347 26.00179979 -4.3692556 21.89010261 -4.38134766 17.77832031 C-4.38638681 16.37857311 -4.39321818 14.97883119 -4.40185547 13.57910156 C-4.41393921 11.57106762 -4.41911408 9.56299582 -4.42407227 7.55493164 C-4.42930908 6.34522705 -4.4345459 5.13552246 -4.43994141 3.88916016 C-4.27479675 -0.14853795 -4.12594377 0.14081203 0 0 Z " fill="#05121D" transform="translate(924.326416015625,529.886474609375)"/>
<path d="M0 0 C1.47668858 0.0133035 2.95331108 0.03716415 4.4296875 0.0703125 C5.18378906 0.07933594 5.93789063 0.08835937 6.71484375 0.09765625 C8.57826004 0.1212438 10.44151343 0.15711531 12.3046875 0.1953125 C12.3046875 0.5253125 12.3046875 0.8553125 12.3046875 1.1953125 C7.3546875 1.1953125 2.4046875 1.1953125 -2.6953125 1.1953125 C-2.3653125 1.8553125 -2.0353125 2.5153125 -1.6953125 3.1953125 C-1.62336381 6.07901583 -1.60239542 8.93770914 -1.6328125 11.8203125 C-1.63732422 12.62210937 -1.64183594 13.42390625 -1.64648438 14.25 C-1.65828082 16.23180256 -1.67621645 18.21356683 -1.6953125 20.1953125 C-2.0253125 20.1953125 -2.3553125 20.1953125 -2.6953125 20.1953125 C-3.0253125 22.5053125 -3.3553125 24.8153125 -3.6953125 27.1953125 C-4.3553125 27.1953125 -5.0153125 27.1953125 -5.6953125 27.1953125 C-5.75315958 23.07037099 -5.78885657 18.94553306 -5.8203125 14.8203125 C-5.83707031 13.6446875 -5.85382812 12.4690625 -5.87109375 11.2578125 C-5.87753906 10.13632812 -5.88398437 9.01484375 -5.890625 7.859375 C-5.90109863 6.82248535 -5.91157227 5.7855957 -5.92236328 4.71728516 C-5.53568044 0.42219507 -4.16087096 0.21991918 0 0 Z " fill="#163B50" transform="translate(605.6953125,483.8046875)"/>
<path d="M0 0 C0 0.66 0 1.32 0 2 C-4.46573511 2.02479481 -8.9314333 2.04290486 -13.3972168 2.05493164 C-14.91512755 2.05994766 -16.4330335 2.06676203 -17.95092773 2.07543945 C-20.13787016 2.08762497 -22.32474846 2.09325572 -24.51171875 2.09765625 C-25.82615967 2.10289307 -27.14060059 2.10812988 -28.49487305 2.11352539 C-31.48205125 2.01677552 -34.10592611 1.70343764 -37 1 C-37 0.67 -37 0.34 -37 0 C-33.54184898 -0.17059365 -30.08345693 -0.33573439 -26.625 -0.5 C-25.17673828 -0.57154297 -25.17673828 -0.57154297 -23.69921875 -0.64453125 C-5.6047722 -1.49460592 -5.6047722 -1.49460592 0 0 Z " fill="#061724" transform="translate(808,548)"/>
<path d="M0 0 C5 5 5 5 7.25 7.4375 C13.54112481 13.29968448 20.36546012 17.35994689 28.8125 19.125 C29.60269531 19.29257812 30.39289063 19.46015625 31.20703125 19.6328125 C31.79871094 19.75398437 32.39039063 19.87515625 33 20 C33 20.33 33 20.66 33 21 C23.24439258 21.61940365 16.55320707 18.73099474 8.9296875 12.71484375 C5.63538873 9.78731913 2.48950872 6.64868622 0 3 C0 2.01 0 1.02 0 0 Z " fill="#091926" transform="translate(180,585)"/>
<path d="M0 0 C2.77952177 4.16928266 4.58014036 8.65894277 6.5625 13.25 C6.97435547 14.17941406 7.38621094 15.10882813 7.81054688 16.06640625 C9.98515536 21.09896992 11.56878252 25.52278151 12 31 C11.34 31 10.68 31 10 31 C8.40305126 27.0720611 6.81852877 23.1394087 5.24536133 19.2019043 C4.70839292 17.86297218 4.16804517 16.52539019 3.62426758 15.18920898 C2.84345545 13.2689103 2.07490438 11.34409239 1.30859375 9.41796875 C0.84251709 8.26063232 0.37644043 7.1032959 -0.10375977 5.91088867 C-1 3 -1 3 0 0 Z " fill="#101D2A" transform="translate(370,495)"/>
<path d="M0 0 C0.66 0 1.32 0 2 0 C3.18118323 3.54354968 3.14909216 6.75139965 3.125 10.4375 C3.12306641 11.14455078 3.12113281 11.85160156 3.11914062 12.58007812 C3.06906229 18.75084129 2.6508898 24.86303905 2 31 C1.67 31 1.34 31 1 31 C0.23223525 26.9247366 -0.11902034 23.08994553 -0.09765625 18.9453125 C-0.09443359 17.83671875 -0.09121094 16.728125 -0.08789062 15.5859375 C-0.07951172 14.44382812 -0.07113281 13.30171875 -0.0625 12.125 C-0.05798828 10.9596875 -0.05347656 9.794375 -0.04882812 8.59375 C-0.03708781 5.72911355 -0.0206657 2.86458367 0 0 Z " fill="#061723" transform="translate(616,504)"/>
<path d="M0 0 C2.58324013 1.29162007 2.69721131 2.27331625 3.7265625 4.9296875 C4.190625 6.12271484 4.190625 6.12271484 4.6640625 7.33984375 C4.98117187 8.17644531 5.29828125 9.01304687 5.625 9.875 C5.94984375 10.70386719 6.2746875 11.53273438 6.609375 12.38671875 C9 18.60435268 9 18.60435268 9 22 C9.66 22 10.32 22 11 22 C11 23.98 11 25.96 11 28 C8.34764775 25.67417821 7.20667715 23.53450252 5.95703125 20.25390625 C5.60576172 19.33416016 5.25449219 18.41441406 4.89257812 17.46679688 C4.53615234 16.50837891 4.17972656 15.54996094 3.8125 14.5625 C3.44447266 13.60794922 3.07644531 12.65339844 2.69726562 11.66992188 C0 4.51891524 0 4.51891524 0 0 Z " fill="#071A29" transform="translate(478,505)"/>
<path d="M0 0 C1 3 1 3 -0.00048828 5.29663086 C-0.51853027 6.17714111 -1.03657227 7.05765137 -1.5703125 7.96484375 C-2.1375 8.92970703 -2.7046875 9.89457031 -3.2890625 10.88867188 C-3.89492188 11.89478516 -4.50078125 12.90089844 -5.125 13.9375 C-5.70765625 14.93974609 -6.2903125 15.94199219 -6.890625 16.97460938 C-9.84336856 21.93667507 -12.2906339 25.54154358 -17 29 C-15.3665378 24.30037413 -12.84844437 20.35330834 -10.1875 16.1875 C-9.76146484 15.51396484 -9.33542969 14.84042969 -8.89648438 14.14648438 C-8.03841185 12.78992494 -7.178882 11.43428618 -6.31787109 10.07958984 C-4.19526756 6.73013878 -2.09754812 3.36517967 0 0 Z " fill="#0B1724" transform="translate(265,563)"/>
<path d="M0 0 C1.14581013 3.4374304 0.84792297 4.15711118 -0.328125 7.45703125 C-0.63363281 8.32263672 -0.93914062 9.18824219 -1.25390625 10.08007812 C-1.58261719 10.98177734 -1.91132813 11.88347656 -2.25 12.8125 C-2.71986328 14.14764648 -2.71986328 14.14764648 -3.19921875 15.50976562 C-4.86762991 20.17924002 -6.6586218 24.62798206 -9 29 C-9.66 29 -10.32 29 -11 29 C-8.98789096 22.77137991 -6.76894748 16.65387908 -4.375 10.5625 C-4.06304687 9.76134766 -3.75109375 8.96019531 -3.4296875 8.13476562 C-1.14481781 2.28963562 -1.14481781 2.28963562 0 0 Z " fill="#081C2B" transform="translate(475,504)"/>
<path d="M0 0 C2.97 0.99 5.94 1.98 9 3 C9 3.66 9 4.32 9 5 C8.41992188 4.84660156 7.83984375 4.69320312 7.2421875 4.53515625 C4.68731579 4.0250251 2.59949551 3.7451475 0 4 C-2.00509384 5.55951743 -3.26696374 7.15676352 -4.7109375 9.23828125 C-6 11 -6 11 -9 13 C-9.99 13 -10.98 13 -12 13 C-12 12.34 -12 11.68 -12 11 C-10.58225631 10.08859335 -9.16284818 9.17965255 -7.734375 8.28515625 C-4.631144 5.98569004 -2.41727052 2.99281112 0 0 Z " fill="#091B29" transform="translate(878,536)"/>
<path d="M0 0 C2.475 0.495 2.475 0.495 5 1 C1.40310351 8.47047732 -3.76458992 17.06222213 -12 20 C-14.25 19.625 -14.25 19.625 -16 19 C-15.34773437 18.6596875 -14.69546875 18.319375 -14.0234375 17.96875 C-8.09920496 14.6833349 -2.98125494 11.2897208 0 5 C0.19887803 2.33534989 0.19887803 2.33534989 0 0 Z " fill="#081522" transform="translate(888,541)"/>
<path d="M0 0 C4.1145246 3.60382249 6.58987169 7.95539865 9.3125 12.625 C9.77978516 13.40101563 10.24707031 14.17703125 10.72851562 14.9765625 C11.16486328 15.7190625 11.60121094 16.4615625 12.05078125 17.2265625 C12.44950439 17.90283691 12.84822754 18.57911133 13.2590332 19.27587891 C13.50355225 19.84483887 13.74807129 20.41379883 14 21 C13.67 21.66 13.34 22.32 13 23 C9.42547405 19.66230505 7.26420743 15.68993651 4.8125 11.5 C4.34908203 10.72785156 3.88566406 9.95570313 3.40820312 9.16015625 C2.97056641 8.41636719 2.53292969 7.67257812 2.08203125 6.90625 C1.68218018 6.22884766 1.2823291 5.55144531 0.87036133 4.85351562 C0 3 0 3 0 0 Z " fill="#071928" transform="translate(82,416)"/>
<path d="M0 0 C0 0.66 0 1.32 0 2 C-1.58199631 2.64910154 -3.16565724 3.29414694 -4.75 3.9375 C-5.63171875 4.29714844 -6.5134375 4.65679688 -7.421875 5.02734375 C-11.71041874 6.64529434 -15.14912156 7.11727236 -19.75 7.0625 C-20.73484375 7.05347656 -21.7196875 7.04445313 -22.734375 7.03515625 C-23.48203125 7.02355469 -24.2296875 7.01195312 -25 7 C-25.33 6.34 -25.66 5.68 -26 5 C-25.18917969 4.97421875 -24.37835937 4.9484375 -23.54296875 4.921875 C-16.50991865 4.56162564 -10.66479751 3.52241303 -4.14453125 0.83984375 C-2 0 -2 0 0 0 Z " fill="#0C1D2B" transform="translate(655,558)"/>
<path d="M0 0 C0 0.66 0 1.32 0 2 C-5.41176471 6 -5.41176471 6 -8 6 C-8.433125 7.0828125 -8.433125 7.0828125 -8.875 8.1875 C-9.57195905 9.92989762 -10.29615222 11.66198731 -11.0625 13.375 C-12.19877965 16.55658303 -12.60622212 19.65288801 -13 23 C-13.33 23 -13.66 23 -14 23 C-15.67669404 17.06708264 -14.46072552 13.67041667 -11.5390625 8.30859375 C-8.94000195 4.41000292 -5.00540008 0 0 0 Z " fill="#0A1E2C" transform="translate(849,498)"/>
<path d="M0 0 C0.99 0 1.98 0 3 0 C3.0580476 3.27075883 3.09361165 6.54138524 3.125 9.8125 C3.14175781 10.74126953 3.15851562 11.67003906 3.17578125 12.62695312 C3.18222656 13.51962891 3.18867187 14.41230469 3.1953125 15.33203125 C3.20578613 16.15421143 3.21625977 16.9763916 3.22705078 17.82348633 C3 20 3 20 1 23 C-0.06059488 15.31068715 -0.09928082 7.75493514 0 0 Z " fill="#041525" transform="translate(955,487)"/>
<path d="M0 0 C5.94 0 11.88 0 18 0 C17.67 1.98 17.34 3.96 17 6 C16.34 6 15.68 6 15 6 C15 4.68 15 3.36 15 2 C10.05 2.33 5.1 2.66 0 3 C0 2.01 0 1.02 0 0 Z " fill="#182B39" transform="translate(425,484)"/>
<path d="M0 0 C5.94 0 11.88 0 18 0 C18.33 1.98 18.66 3.96 19 6 C18.34 4.68 17.68 3.36 17 2 C8.585 2.495 8.585 2.495 0 3 C0 2.01 0 1.02 0 0 Z " fill="#122736" transform="translate(468,484)"/>
<path d="M0 0 C1.299375 1.175625 1.299375 1.175625 2.625 2.375 C8.11295625 6.90352334 14.12991824 7.41985976 21 8 C16.4928739 10.62491768 12.9595631 10.15028522 8 9 C5.17477691 7.94119654 3.47369702 6.85527276 1 5 C0.0625 2.25 0.0625 2.25 0 0 Z " fill="#071927" transform="translate(621,541)"/>
<path d="M0 0 C3.66443592 3.29220203 5.92210279 6.88608721 8.3125 11.125 C8.68439453 11.75792969 9.05628906 12.39085937 9.43945312 13.04296875 C10.36049248 14.65864672 11.18847911 16.32663135 12 18 C11.67 18.66 11.34 19.32 11 20 C7.77181698 17.2300764 5.88088902 13.6505383 3.8125 10 C3.44447266 9.3709375 3.07644531 8.741875 2.69726562 8.09375 C0 3.369782 0 3.369782 0 0 Z " fill="#081A28" transform="translate(103,452)"/>
<path d="M0 0 C0.66 0 1.32 0 2 0 C0.56323497 3.54965477 -1.11301898 5.07087942 -4.3125 7.125 C-5.07175781 7.62257813 -5.83101562 8.12015625 -6.61328125 8.6328125 C-10.82805283 11.0471661 -14.11633323 12.27906667 -19 12 C-15.16210711 9.44140474 -11.07452414 7.60404984 -6.91015625 5.6328125 C-4.06499981 4.03646969 -2.24870315 2.32416298 0 0 Z " fill="#0C1926" transform="translate(245,593)"/>
<path d="M0 0 C2.74722498 1.16228749 4.44429284 2.40296327 6.6875 4.4375 C10.31454055 7.58901595 14.42964575 8.75076984 19 10 C19 10.33 19 10.66 19 11 C12.94083542 11.77351037 9.94154165 10.09322442 5.015625 6.60546875 C3.19187189 5.15282819 1.52611157 3.76275545 0 2 C0 1.34 0 0.68 0 0 Z " fill="#0A1925" transform="translate(609,552)"/>
<path d="M0 0 C0.84755859 0.04833984 1.69511719 0.09667969 2.56835938 0.14648438 C3.44943359 0.20255859 4.33050781 0.25863281 5.23828125 0.31640625 C6.13095703 0.36861328 7.02363281 0.42082031 7.94335938 0.47460938 C10.14619685 0.60418805 12.34856998 0.73914871 14.55078125 0.87890625 C14.88078125 1.53890625 15.21078125 2.19890625 15.55078125 2.87890625 C7.63078125 3.20890625 -0.28921875 3.53890625 -8.44921875 3.87890625 C-8.11921875 2.88890625 -7.78921875 1.89890625 -7.44921875 0.87890625 C-4.52252184 -0.09665939 -3.00860554 -0.18172785 0 0 Z " fill="#103045" transform="translate(67.44921875,376.12109375)"/>
<path d="M0 0 C0.66 0 1.32 0 2 0 C1.37930147 3.54051508 0.455941 6.72483014 -0.875 10.0625 C-1.20242188 10.89910156 -1.52984375 11.73570312 -1.8671875 12.59765625 C-3.00392999 15.0083343 -4.32870306 16.93236693 -6 19 C-5.52877252 12.0886636 -2.79363994 6.27795839 0 0 Z " fill="#081B2A" transform="translate(449,531)"/>
<path d="M0 0 C0.66 0 1.32 0 2 0 C2 9.24 2 18.48 2 28 C1.67 28 1.34 28 1 28 C0.98018066 27.38479492 0.96036133 26.76958984 0.93994141 26.13574219 C0.84450273 23.34007458 0.73490045 20.5451349 0.625 17.75 C0.57859375 16.29787109 0.57859375 16.29787109 0.53125 14.81640625 C0.49257813 13.88183594 0.45390625 12.94726562 0.4140625 11.984375 C0.3826416 11.12553711 0.3512207 10.26669922 0.31884766 9.38183594 C-0.01716204 6.8717972 -0.74191728 5.18067672 -2 3 C-1.34 2.01 -0.68 1.02 0 0 Z " fill="#042136" transform="translate(956,530)"/>
<path d="M0 0 C0.66 0.33 1.32 0.66 2 1 C1.38125 2.051875 0.7625 3.10375 0.125 4.1875 C-2.73044875 9.80726617 -3.28236912 15.80571242 -4 22 C-4.33 22 -4.66 22 -5 22 C-6.78149738 13.7777044 -4.77758355 8.41080085 -1 1 C-0.67 0.67 -0.34 0.34 0 0 Z " fill="#061827" transform="translate(825,499)"/>
<path d="M0 0 C2.41674224 -0.02705308 4.8331794 -0.04686438 7.25 -0.0625 C7.93191406 -0.07087891 8.61382813 -0.07925781 9.31640625 -0.08789062 C12.69342554 -0.10428392 15.77291639 -0.05628768 19 1 C19 1.66 19 2.32 19 3 C12.73 2.67 6.46 2.34 0 2 C0 1.34 0 0.68 0 0 Z " fill="#0D2535" transform="translate(850,482)"/>
<path d="M0 0 C0.73828125 1.578125 0.73828125 1.578125 1 4 C-0.17956378 6.41155262 -1.36180363 8.51627124 -2.8125 10.75 C-3.36647461 11.65298828 -3.36647461 11.65298828 -3.93164062 12.57421875 C-4.89016178 14.09202066 -5.93906151 15.55193406 -7 17 C-7.66 17 -8.32 17 -9 17 C-7.51481201 12.95698825 -5.57122002 9.38853744 -3.375 5.6875 C-2.74335938 4.61886719 -2.11171875 3.55023438 -1.4609375 2.44921875 C-0.97882813 1.64097656 -0.49671875 0.83273437 0 0 Z " fill="#F88022" transform="translate(332,447)"/>
<path d="M0 0 C0.33 0.66 0.66 1.32 1 2 C-4.87883349 4.61281488 -10.70731728 4.18328202 -17 4 C-17.33 3.34 -17.66 2.68 -18 2 C-9.09 1.01 -9.09 1.01 0 0 Z " fill="#0D1F2D" transform="translate(869,561)"/>
<path d="M0 0 C2.37160148 2.37160148 2.31983352 3.00621122 2.375 6.25 C2.29801482 11.01538294 0.98554417 13.36136804 -2 17 C-3.32 16.67 -4.64 16.34 -6 16 C-4.7934375 15.1028125 -4.7934375 15.1028125 -3.5625 14.1875 C0.35490427 10.38075687 -0.09927877 5.15347066 0 0 Z " fill="#081C2B" transform="translate(572,504)"/>
<path d="M0 0 C5.28 0.33 10.56 0.66 16 1 C15.67 1.99 15.34 2.98 15 4 C10.05 4 5.1 4 0 4 C0 2.68 0 1.36 0 0 Z " fill="#112838" transform="translate(956,483)"/>
<path d="M0 0 C0.99 0 1.98 0 3 0 C3 5.28 3 10.56 3 16 C2.34 16 1.68 16 1 16 C-0.14077657 12.57767028 -0.09815117 9.91326783 -0.0625 6.3125 C-0.05347656 5.13300781 -0.04445313 3.95351563 -0.03515625 2.73828125 C-0.02355469 1.83464844 -0.01195312 0.93101562 0 0 Z " fill="#041626" transform="translate(754,534)"/>
<path d="M0 0 C3.74123976 4.2954975 6.34151874 8.99900452 9 14 C8.01 14.495 8.01 14.495 7 15 C3.77304197 13.38652099 3.33776685 10.23293656 2 7 C1.34 6.01 0.68 5.02 0 4 C0 2.68 0 1.36 0 0 Z " fill="#16212E" transform="translate(228,512)"/>
<path d="M0 0 C0.66 0 1.32 0 2 0 C1.57316761 1.58624235 1.13303842 3.1689098 0.6875 4.75 C0.44386719 5.63171875 0.20023437 6.5134375 -0.05078125 7.421875 C-1.02125331 10.05772505 -2.21005644 11.85407326 -4 14 C-3.46148032 8.72250715 -2.22656164 4.74354436 0 0 Z " fill="#081927" transform="translate(455,516)"/>
<path d="M0 0 C0.66 0 1.32 0 2 0 C1.34580901 5.06998019 -0.8546409 9.41990777 -3 14 C-4.37095624 10.30962722 -3.60010967 8.29116165 -2.0625 4.75 C-1.68222656 3.85796875 -1.30195313 2.9659375 -0.91015625 2.046875 C-0.60980469 1.37140625 -0.30945313 0.6959375 0 0 Z " fill="#091B29" transform="translate(466,488)"/>
<path d="M0 0 C3.78699616 3.36621881 6.8272631 7.41641804 9 12 C8.67 12.66 8.34 13.32 8 14 C4.084859 10.64416485 1.9204226 6.71933638 0 2 C0 1.34 0 0.68 0 0 Z " fill="#13202F" transform="translate(199,464)"/>
<path d="M0 0 C0.66 0.99 1.32 1.98 2 3 C-0.31537955 6.72114571 -2.28579473 9.61229661 -6 12 C-6.66 11.67 -7.32 11.34 -8 11 C-7.50628906 10.45730469 -7.01257813 9.91460938 -6.50390625 9.35546875 C-5.86324219 8.64003906 -5.22257813 7.92460938 -4.5625 7.1875 C-3.92441406 6.47980469 -3.28632812 5.77210938 -2.62890625 5.04296875 C-0.80913988 3.00103848 -0.80913988 3.00103848 0 0 Z " fill="#081B29" transform="translate(651,537)"/>
<path d="M0 0 C0.99 0.33 1.98 0.66 3 1 C0.35521821 5.0367722 -2.75175242 6.87587621 -7 9 C-5.66087415 4.61740632 -3.87774964 2.45906075 0 0 Z " fill="#071A28" transform="translate(834,489)"/>
<path d="M0 0 C0.33 0 0.66 0 1 0 C1.66 5.61 2.32 11.22 3 17 C-0.5890612 12.21458507 -1.32912712 10.0422938 -0.5625 4.25 C-0.46066406 3.45078125 -0.35882812 2.6515625 -0.25390625 1.828125 C-0.17011719 1.22484375 -0.08632813 0.6215625 0 0 Z " fill="#0E283A" transform="translate(618,526)"/>
<path d="M0 0 C3.81552617 1.49895671 5.53745046 3.7986856 8 7 C8.66 7.33 9.32 7.66 10 8 C10 8.66 10 9.32 10 10 C5.86360664 8.40907948 2.76786752 5.39525082 0 2 C0 1.34 0 0.68 0 0 Z " fill="#151F2C" transform="translate(237,528)"/>
<path d="M0 0 C0.66 0 1.32 0 2 0 C1.74337755 1.44010481 1.46909179 2.8770687 1.1875 4.3125 C1.03667969 5.11300781 0.88585937 5.91351563 0.73046875 6.73828125 C-0.07572236 9.23445587 -1.02052002 10.32422106 -3 12 C-2.49202991 7.6822542 -1.80317221 3.96697886 0 0 Z " fill="#071929" transform="translate(460,503)"/>
<path d="M0 0 C2.94721162 2.74395564 5.19168608 5.38337216 7 9 C6.67 9.66 6.34 10.32 6 11 C3.37997275 8.62949916 1.64180091 6.12723983 0 3 C0 2.01 0 1.02 0 0 Z " fill="#071827" transform="translate(96,440)"/>
<path d="M0 0 C0.33 0 0.66 0 1 0 C1 3.96 1 7.92 1 12 C1.66 12.33 2.32 12.66 3 13 C1.68 13.33 0.36 13.66 -1 14 C-1.08333357 9.1666528 -0.95261487 4.76307437 0 0 Z " fill="#091622" transform="translate(906,549)"/>
<path d="M0 0 C0.66 0 1.32 0 2 0 C1.39009109 3.55780196 0.4216319 6.6828589 -1 10 C-1.66 10 -2.32 10 -3 10 C-2.01 6.7 -1.02 3.4 0 0 Z " fill="#091D2D" transform="translate(441,551)"/>
<path d="M0 0 C-0.66 1.32 -1.32 2.64 -2 4 C-2 3.34 -2 2.68 -2 2 C-6.95 2 -11.9 2 -17 2 C-17 1.67 -17 1.34 -17 1 C-14.54171921 0.83252588 -12.08338135 0.6659856 -9.625 0.5 C-8.92632812 0.45230469 -8.22765625 0.40460937 -7.5078125 0.35546875 C-2.2265625 0 -2.2265625 0 0 0 Z " fill="#484B50" transform="translate(278,543)"/>
<path d="M0 0 C0.66 0.66 1.32 1.32 2 2 C1.79107816 5.27310883 1.56305786 7.32433057 -0.5625 9.875 C-1.036875 10.24625 -1.51125 10.6175 -2 11 C-1 3.57142857 -1 3.57142857 0 0 Z " fill="#0B1F2C" transform="translate(666,538)"/>
<path d="M0 0 C0.66 0 1.32 0 2 0 C1.49287967 3.71888239 0.88391785 6.73454239 -1 10 C-1.33 10 -1.66 10 -2 10 C-1.54177532 6.53058454 -1.10868317 3.32604951 0 0 Z " fill="#091C2A" transform="translate(412,517)"/>
<path d="M0 0 C2.83374881 3.20336822 3.5205537 5.78087253 4 10 C0.9083091 7.47043472 0.09068668 4.77545388 -1 1 C-0.67 0.67 -0.34 0.34 0 0 Z " fill="#E77C2A" transform="translate(242,508)"/>
<path d="M0 0 C2.97 0.99 5.94 1.98 9 3 C9 3.66 9 4.32 9 5 C6.36 4.67 3.72 4.34 1 4 C0.67 2.68 0.34 1.36 0 0 Z " fill="#0A2336" transform="translate(878,536)"/>
<path d="M0 0 C2.74277578 3.19990508 4.6302836 6.00499382 6 10 C5.01 10.495 5.01 10.495 4 11 C0 4.5 0 4.5 0 0 Z " fill="#131F2D" transform="translate(208,478)"/>
<path d="M0 0 C0.33 0 0.66 0 1 0 C1 3.3 1 6.6 1 10 C2.32 10.33 3.64 10.66 5 11 C3.68 11 2.36 11 1 11 C0.67 11.66 0.34 12.32 0 13 C-1.06671952 9.79984144 -0.94845472 8.11455706 -0.5625 4.8125 C-0.46066406 3.91144531 -0.35882812 3.01039063 -0.25390625 2.08203125 C-0.17011719 1.39496094 -0.08632813 0.70789063 0 0 Z " fill="#07101B" transform="translate(755,551)"/>
<path d="M0 0 C2.61500768 2.36595933 4.38999603 4.86049226 6 8 C5.67 8.66 5.34 9.32 5 10 C2.08772731 6.71195019 0.50298788 4.40114397 0 0 Z " fill="#071320" transform="translate(76,405)"/>
<path d="M0 0 C0.66 0 1.32 0 2 0 C1.67 0.66 1.34 1.32 1 2 C0.67 1.34 0.34 0.68 0 0 Z " fill="#143E55" transform="translate(573,535)"/>
<path d="M0 0 C3 1 3 1 3 1 Z " fill="#17425A" transform="translate(854,499)"/>
<path d="M0 0 C2 1 2 1 2 1 Z " fill="#1B3A4D" transform="translate(958,564)"/>
<path d="M0 0 C2 1 2 1 2 1 Z " fill="#1C3E50" transform="translate(757,564)"/>
<path d="M0 0 C2 1 2 1 2 1 Z " fill="#1A3F55" transform="translate(502,564)"/>
<path d="" fill="#1D4155" transform="translate(0,0)"/>
<path d="" fill="#184058" transform="translate(0,0)"/>
<path d="" fill="#133B53" transform="translate(0,0)"/>
<path d="" fill="#174057" transform="translate(0,0)"/>
<path d="" fill="#967059" transform="translate(0,0)"/>
<path d="" fill="#184058" transform="translate(0,0)"/>
<path d="M0 0 C2 1 2 1 2 1 Z " fill="#163B53" transform="translate(475,511)"/>
<path d="" fill="#1C4359" transform="translate(0,0)"/>
<path d="" fill="#1A425A" transform="translate(0,0)"/>
<path d="M0 0 C2 1 2 1 2 1 Z " fill="#23465E" transform="translate(667,482)"/>
<path d="" fill="#38505E" transform="translate(0,0)"/>
<path d="M0 0 C2 1 2 1 2 1 Z " fill="#6F6868" transform="translate(365,481)"/>
<path d="" fill="#193E55" transform="translate(0,0)"/>
<path d="" fill="#163D54" transform="translate(0,0)"/>
<path d="" fill="#1C4458" transform="translate(0,0)"/>
<path d="" fill="#1B4058" transform="translate(0,0)"/>
<path d="" fill="#1C3E52" transform="translate(0,0)"/>
<path d="" fill="#1B3D54" transform="translate(0,0)"/>
<path d="" fill="#1C3F54" transform="translate(0,0)"/>
<path d="" fill="#1D3F57" transform="translate(0,0)"/>
<path d="" fill="#264353" transform="translate(0,0)"/>
<path d="" fill="#1A3F55" transform="translate(0,0)"/>
<path d="" fill="#1D4056" transform="translate(0,0)"/>
<path d="" fill="#1B3E54" transform="translate(0,0)"/>
<path d="" fill="#1E4256" transform="translate(0,0)"/>
<path d="" fill="#1C3F53" transform="translate(0,0)"/>
<path d="" fill="#183C52" transform="translate(0,0)"/>
<path d="" fill="#284554" transform="translate(0,0)"/>
<path d="" fill="#173D55" transform="translate(0,0)"/>
<path d="" fill="#404E58" transform="translate(0,0)"/>
<path d="" fill="#183F54" transform="translate(0,0)"/>
<path d="" fill="#184057" transform="translate(0,0)"/>
<path d="" fill="#113C51" transform="translate(0,0)"/>
<path d="" fill="#274557" transform="translate(0,0)"/>
<path d="" fill="#143C53" transform="translate(0,0)"/>
<path d="" fill="#153F5A" transform="translate(0,0)"/>
<path d="" fill="#1E4157" transform="translate(0,0)"/>
<path d="" fill="#194055" transform="translate(0,0)"/>
<path d="" fill="#194057" transform="translate(0,0)"/>
<path d="" fill="#595A58" transform="translate(0,0)"/>
<path d="" fill="#1B4258" transform="translate(0,0)"/>
<path d="" fill="#173E57" transform="translate(0,0)"/>
<path d="" fill="#174157" transform="translate(0,0)"/>
<path d="" fill="#14445F" transform="translate(0,0)"/>
<path d="" fill="#173F57" transform="translate(0,0)"/>
<path d="" fill="#A47761" transform="translate(0,0)"/>
<path d="" fill="#164157" transform="translate(0,0)"/>
<path d="" fill="#163C56" transform="translate(0,0)"/>
<path d="" fill="#174059" transform="translate(0,0)"/>
<path d="" fill="#17415A" transform="translate(0,0)"/>
<path d="" fill="#143E58" transform="translate(0,0)"/>
<path d="" fill="#154057" transform="translate(0,0)"/>
<path d="" fill="#173F58" transform="translate(0,0)"/>
<path d="" fill="#133E57" transform="translate(0,0)"/>
<path d="" fill="#163E57" transform="translate(0,0)"/>
<path d="" fill="#C78657" transform="translate(0,0)"/>
<path d="" fill="#9A705F" transform="translate(0,0)"/>
<path d="" fill="#99715B" transform="translate(0,0)"/>
<path d="" fill="#144054" transform="translate(0,0)"/>
<path d="" fill="#19405A" transform="translate(0,0)"/>
<path d="" fill="#113D54" transform="translate(0,0)"/>
<path d="" fill="#173E58" transform="translate(0,0)"/>
<path d="" fill="#164159" transform="translate(0,0)"/>
<path d="" fill="#123E56" transform="translate(0,0)"/>
<path d="" fill="#143F59" transform="translate(0,0)"/>
<path d="" fill="#655B59" transform="translate(0,0)"/>
<path d="" fill="#635958" transform="translate(0,0)"/>
<path d="" fill="#665855" transform="translate(0,0)"/>
<path d="" fill="#1A3D54" transform="translate(0,0)"/>
<path d="" fill="#3C505C" transform="translate(0,0)"/>
<path d="" fill="#164159" transform="translate(0,0)"/>
<path d="" fill="#163F58" transform="translate(0,0)"/>
<path d="" fill="#143C55" transform="translate(0,0)"/>
<path d="" fill="#154055" transform="translate(0,0)"/>
<path d="" fill="#163F55" transform="translate(0,0)"/>
<path d="" fill="#174158" transform="translate(0,0)"/>
<path d="" fill="#174258" transform="translate(0,0)"/>
<path d="" fill="#214458" transform="translate(0,0)"/>
<path d="" fill="#1C4158" transform="translate(0,0)"/>
<path d="" fill="#143D55" transform="translate(0,0)"/>
<path d="" fill="#18445B" transform="translate(0,0)"/>
<path d="" fill="#153B53" transform="translate(0,0)"/>
<path d="" fill="#1C4359" transform="translate(0,0)"/>
<path d="" fill="#1F445A" transform="translate(0,0)"/>
<path d="" fill="#A07158" transform="translate(0,0)"/>
<path d="" fill="#24465A" transform="translate(0,0)"/>
<path d="" fill="#DA905C" transform="translate(0,0)"/>
<path d="" fill="#224A5D" transform="translate(0,0)"/>
<path d="" fill="#3B5362" transform="translate(0,0)"/>
<path d="" fill="#22475E" transform="translate(0,0)"/>
<path d="" fill="#1D455D" transform="translate(0,0)"/>
<path d="" fill="#27495D" transform="translate(0,0)"/>
<path d="" fill="#27495D" transform="translate(0,0)"/>
<path d="" fill="#365060" transform="translate(0,0)"/>
<path d="" fill="#505C63" transform="translate(0,0)"/>
<path d="" fill="#1C475B" transform="translate(0,0)"/>
<path d="" fill="#1C475C" transform="translate(0,0)"/>
<path d="" fill="#625B5E" transform="translate(0,0)"/>
<path d="" fill="#20475F" transform="translate(0,0)"/>
<path d="" fill="#1E455D" transform="translate(0,0)"/>
<path d="" fill="#53585B" transform="translate(0,0)"/>
<path d="" fill="#113B54" transform="translate(0,0)"/>
<path d="" fill="#47545C" transform="translate(0,0)"/>
<path d="" fill="#3E4E56" transform="translate(0,0)"/>
<path d="" fill="#D89260" transform="translate(0,0)"/>
<path d="" fill="#143F58" transform="translate(0,0)"/>
<path d="" fill="#DB9262" transform="translate(0,0)"/>
<path d="" fill="#133C55" transform="translate(0,0)"/>
<path d="" fill="#133A52" transform="translate(0,0)"/>
<path d="" fill="#183D55" transform="translate(0,0)"/>
<path d="" fill="#133C54" transform="translate(0,0)"/>
<path d="" fill="#E3965E" transform="translate(0,0)"/>
<path d="" fill="#DE9561" transform="translate(0,0)"/>
<path d="" fill="#143E56" transform="translate(0,0)"/>
<path d="" fill="#143D53" transform="translate(0,0)"/>
<path d="" fill="#D69362" transform="translate(0,0)"/>
<path d="" fill="#CF8E5E" transform="translate(0,0)"/>
<path d="" fill="#C98D60" transform="translate(0,0)"/>
<path d="" fill="#CC8B60" transform="translate(0,0)"/>
<path d="" fill="#E2945E" transform="translate(0,0)"/>
<path d="" fill="#1D4358" transform="translate(0,0)"/>
<path d="" fill="#133C54" transform="translate(0,0)"/>
<path d="" fill="#113D55" transform="translate(0,0)"/>
<path d="" fill="#133E52" transform="translate(0,0)"/>
</svg>
